<svg width="33" height="33" viewBox="0 0 33 33" fill="none" xmlns="http://www.w3.org/2000/svg">
<path d="M15.4571 21.3054C16.5208 21.7262 17.4921 22.2859 18.3662 22.9819C19.2404 23.6757 19.9873 24.4851 20.6094 25.4008C21.8781 27.2486 22.5614 29.4355 22.5704 31.6769V32.6875H20.5469V31.6746C20.5512 30.4786 20.3173 29.2938 19.8587 28.1892C19.4001 27.0846 18.7261 26.0825 17.876 25.2412C17.0415 24.4186 16.0603 23.7598 14.983 23.2987C13.8635 22.8191 12.6583 22.5713 11.4403 22.5703C10.2443 22.566 9.05945 22.7999 7.95488 23.2585C6.85031 23.7171 5.84815 24.3911 5.00691 25.2412C4.18457 26.0759 3.52572 27.0571 3.06441 28.1342C2.58804 29.2303 2.34754 30.412 2.33598 31.6746V32.6875H0.312538V31.6746C0.306623 29.4316 0.991291 27.2412 2.27354 25.4008C3.55072 23.5582 5.34403 22.1342 7.4281 21.3077C6.95465 20.9824 6.52352 20.5994 6.14466 20.1676C5.77029 19.7426 5.44668 19.2754 5.18035 18.7755C4.91507 18.2761 4.71309 17.7455 4.5791 17.1961C4.44246 16.6364 4.36877 16.0632 4.35941 15.4871C4.35941 14.5089 4.54441 13.5909 4.91441 12.7376C5.6379 11.0469 6.98436 9.69965 8.67454 8.97512C9.54651 8.60393 10.484 8.41125 11.4317 8.40847C12.3794 8.40569 13.318 8.59287 14.1922 8.95894C15.8832 9.68297 17.2306 11.0303 17.9546 12.7214C18.5534 14.1295 18.6807 15.6935 18.3177 17.1799C18.1789 17.7279 17.9754 18.2552 17.7025 18.7616C17.4314 19.2629 17.1082 19.7342 16.7382 20.1676C16.3682 20.6001 15.9404 20.977 15.4571 21.3054ZM11.4403 20.5469C12.1363 20.5469 12.7908 20.4151 13.4013 20.1537C14.6117 19.6394 15.5751 18.6752 16.0884 17.4643C16.3636 16.8422 16.5 16.1832 16.5 15.4894C16.503 14.8272 16.3729 14.1712 16.1175 13.5602C15.8621 12.9493 15.4865 12.3959 15.0131 11.9328C14.5449 11.4762 13.9991 11.1066 13.4013 10.8413C12.7845 10.5658 12.1158 10.4255 11.4403 10.4297C10.7465 10.4297 10.0921 10.5615 9.4816 10.8228C8.26449 11.3419 7.2951 12.3113 6.77598 13.5284C6.51466 14.1389 6.38285 14.7934 6.38285 15.4894C6.38285 16.1832 6.51466 16.8376 6.77598 17.4481C7.04191 18.0586 7.40035 18.5974 7.8536 19.0599C8.32282 19.5341 8.88195 19.9098 9.49822 20.1652C10.1145 20.4205 10.7755 20.5503 11.4426 20.5469H11.4403ZM32.6875 0.3125V16.5H28.6407L22.5704 22.5703V16.5H20.5469V14.4766H24.5938V17.6863L27.8035 14.4766H30.6641V2.33594H10.4297V5.97119C10.0906 6.01404 9.75277 6.06726 9.41685 6.13075C9.0724 6.19615 8.73428 6.29131 8.40629 6.41519V0.3125H32.6875Z" fill="#083C6F"/>
</svg>
