<svg width="24" height="24" viewBox="0 0 24 24" fill="none" xmlns="http://www.w3.org/2000/svg">
<path fill-rule="evenodd" clip-rule="evenodd" d="M6.96888 2.46897C7.03854 2.39912 7.12131 2.34371 7.21242 2.3059C7.30354 2.26809 7.40122 2.24863 7.49988 2.24863C7.59853 2.24863 7.69621 2.26809 7.78733 2.3059C7.87844 2.34371 7.96121 2.39912 8.03088 2.46897L17.0309 11.469C17.1007 11.5386 17.1561 11.6214 17.1939 11.7125C17.2318 11.8036 17.2512 11.9013 17.2512 12C17.2512 12.0986 17.2318 12.1963 17.1939 12.2874C17.1561 12.3785 17.1007 12.4613 17.0309 12.531L8.03088 21.531C7.89005 21.6718 7.69904 21.7509 7.49988 21.7509C7.30071 21.7509 7.10971 21.6718 6.96888 21.531C6.82805 21.3901 6.74893 21.1991 6.74893 21C6.74893 20.8008 6.82805 20.6098 6.96888 20.469L15.4394 12L6.96888 3.53097C6.89903 3.4613 6.84362 3.37854 6.80581 3.28742C6.768 3.1963 6.74854 3.09862 6.74854 2.99997C6.74854 2.90132 6.768 2.80363 6.80581 2.71252C6.84362 2.6214 6.89903 2.53864 6.96888 2.46897Z" fill="#212529"/>
</svg>
