<svg width="24" height="24" viewBox="0 0 24 24" fill="none" xmlns="http://www.w3.org/2000/svg">
<path fill-rule="evenodd" clip-rule="evenodd" d="M17.0309 2.469C17.1007 2.53867 17.1561 2.62143 17.1939 2.71255C17.2318 2.80367 17.2512 2.90135 17.2512 3C17.2512 3.09865 17.2318 3.19633 17.1939 3.28745C17.1561 3.37857 17.1007 3.46133 17.0309 3.531L8.56038 12L17.0309 20.469C17.1717 20.6098 17.2508 20.8008 17.2508 21C17.2508 21.1992 17.1717 21.3902 17.0309 21.531C16.89 21.6718 16.699 21.7509 16.4999 21.7509C16.3007 21.7509 16.1097 21.6718 15.9689 21.531L6.96888 12.531C6.89903 12.4613 6.84362 12.3786 6.80581 12.2874C6.768 12.1963 6.74854 12.0986 6.74854 12C6.74854 11.9013 6.768 11.8037 6.80581 11.7125C6.84362 11.6214 6.89903 11.5387 6.96888 11.469L15.9689 2.469C16.0385 2.39915 16.1213 2.34374 16.2124 2.30593C16.3035 2.26812 16.4012 2.24866 16.4999 2.24866C16.5985 2.24866 16.6962 2.26812 16.7873 2.30593C16.8784 2.34374 16.9612 2.39915 17.0309 2.469Z" fill="#212529"/>
</svg>
