<svg width="56" height="56" viewBox="0 0 56 56" fill="none" xmlns="http://www.w3.org/2000/svg">
<path d="M40.7273 29.0769C40.7273 28.2201 40.325 27.3983 39.609 26.7924C38.8929 26.1865 37.9217 25.8462 36.9091 25.8462H19.0909C18.0783 25.8462 17.1071 26.1865 16.391 26.7924C15.675 27.3983 15.2727 28.2201 15.2727 29.0769V30.1538C15.2727 34.3991 20.0073 38.7692 28 38.7692C35.9927 38.7692 40.7273 34.3991 40.7273 30.1538V29.0769ZM35 17.7692C35 16.1983 34.2625 14.6918 32.9497 13.581C31.637 12.4702 29.8565 11.8462 28 11.8462C26.1435 11.8462 24.363 12.4702 23.0503 13.581C21.7375 14.6918 21 16.1983 21 17.7692C21 19.3401 21.7375 20.8467 23.0503 21.9575C24.363 23.0683 26.1435 23.6923 28 23.6923C29.8565 23.6923 31.637 23.0683 32.9497 21.9575C34.2625 20.8467 35 19.3401 35 17.7692ZM50.9091 49.5385H5.30727C5.57058 50.1686 6.05839 50.7142 6.70348 51.0999C7.34856 51.4857 8.11917 51.6927 8.90909 51.6923H53.4545C54.1296 51.6923 54.7771 51.9192 55.2545 52.3232C55.7318 52.7271 56 53.2749 56 53.8462C56 54.4174 55.7318 54.9652 55.2545 55.3692C54.7771 55.7731 54.1296 56 53.4545 56H8.90909C6.54625 56 4.28019 55.2058 2.60941 53.792C0.938634 52.3783 0 50.4609 0 48.4615V7.53846C0 5.53914 0.938634 3.6217 2.60941 2.20796C4.28019 0.794229 6.54625 0 8.90909 0H47.0909C49.4537 0 51.7198 0.794229 53.3906 2.20796C55.0614 3.6217 56 5.53914 56 7.53846V45.2308C56 46.3732 55.4636 47.4689 54.5089 48.2768C53.5542 49.0846 52.2593 49.5385 50.9091 49.5385ZM5.09091 7.53846V45.2308H50.9091V7.53846C50.9091 6.68161 50.5068 5.85985 49.7908 5.25396C49.0747 4.64808 48.1036 4.30769 47.0909 4.30769H8.90909C7.89645 4.30769 6.92528 4.64808 6.20923 5.25396C5.49318 5.85985 5.09091 6.68161 5.09091 7.53846Z" fill="#083C6F"/>
</svg>
