<svg width="42" height="52" viewBox="0 0 42 52" fill="none" xmlns="http://www.w3.org/2000/svg">
<path d="M28.1485 1.01282L40.9358 13.7846M10.5231 24.6256H31.4127M10.5231 40.0949H31.4127M10.5231 32.3603H31.4127M3.49663 1.01282C2.82876 1.02922 2.19378 1.30577 1.7273 1.78343C1.26081 2.26108 0.999798 2.90197 1 3.56923V48.4436C0.99979 49.1106 1.26063 49.7513 1.72684 50.229C2.19305 50.7066 2.8277 50.9833 3.49535 51H38.4405C39.1193 51 39.7703 50.7307 40.2503 50.2512C40.7303 49.7718 41 49.1216 41 48.4436V13.7846H30.7606C30.0925 13.7682 29.4573 13.4915 28.9908 13.0135C28.5243 12.5356 28.2634 11.8944 28.264 11.2269V1L3.49663 1.01282Z" stroke="#083C6F" stroke-width="2" stroke-linecap="round" stroke-linejoin="round"/>
</svg>
