<svg width="24" height="24" viewBox="0 0 24 24" fill="none" xmlns="http://www.w3.org/2000/svg">
<path d="M21 9.99988C21 16.9999 12 22.9999 12 22.9999C12 22.9999 3 16.9999 3 9.99988C3 7.61293 3.94821 5.32374 5.63604 3.63592C7.32387 1.94809 9.61305 0.999878 12 0.999878C14.3869 0.999878 16.6761 1.94809 18.364 3.63592C20.0518 5.32374 21 7.61293 21 9.99988Z" stroke="white" stroke-width="2" stroke-linecap="round" stroke-linejoin="round"/>
<path d="M12 12.9999C13.6569 12.9999 15 11.6567 15 9.99988C15 8.34302 13.6569 6.99988 12 6.99988C10.3431 6.99988 9 8.34302 9 9.99988C9 11.6567 10.3431 12.9999 12 12.9999Z" stroke="white" stroke-width="2" stroke-linecap="round" stroke-linejoin="round"/>
</svg>
