<svg width="14" height="14" viewBox="0 0 14 14" fill="none" xmlns="http://www.w3.org/2000/svg">
<path d="M12.8332 9.87V11.62C12.8339 11.7825 12.8006 11.9433 12.7355 12.0921C12.6704 12.241 12.575 12.3746 12.4553 12.4844C12.3355 12.5942 12.1942 12.6779 12.0403 12.7299C11.8864 12.782 11.7233 12.8013 11.5615 12.7867C9.76653 12.5916 8.0423 11.9783 6.52738 10.9958C5.11795 10.1002 3.92299 8.90527 3.02738 7.49583C2.04153 5.97404 1.42802 4.24141 1.23655 2.43833C1.22197 2.27702 1.24114 2.11444 1.29284 1.96095C1.34454 1.80745 1.42763 1.6664 1.53683 1.54678C1.64602 1.42716 1.77893 1.33158 1.92709 1.26614C2.07525 1.2007 2.23541 1.16682 2.39738 1.16667H4.14738C4.43047 1.16388 4.70492 1.26413 4.91957 1.44873C5.13422 1.63333 5.27442 1.88968 5.31405 2.17C5.38791 2.73004 5.52489 3.27992 5.72238 3.80917C5.80086 4.01796 5.81785 4.24487 5.77133 4.46301C5.7248 4.68116 5.61672 4.8814 5.45988 5.04L4.71905 5.78083C5.54945 7.24124 6.75864 8.45043 8.21905 9.28083L8.95988 8.54C9.11848 8.38316 9.31872 8.27508 9.53687 8.22856C9.75501 8.18203 9.98192 8.19902 10.1907 8.2775C10.72 8.47499 11.2698 8.61197 11.8299 8.68583C12.1132 8.72581 12.372 8.86854 12.557 9.08687C12.742 9.30521 12.8403 9.58392 12.8332 9.87Z" stroke="#393B3E" stroke-width="1.16667" stroke-linecap="round" stroke-linejoin="round"/>
</svg>
