<svg width="22" height="22" viewBox="0 0 22 22" fill="none" xmlns="http://www.w3.org/2000/svg">
<path d="M20.9999 15.9198V18.9198C21.0011 19.1983 20.944 19.474 20.8324 19.7291C20.7209 19.9843 20.5572 20.2134 20.352 20.4017C20.1468 20.5899 19.9045 20.7333 19.6407 20.8225C19.3769 20.9117 19.0973 20.9449 18.8199 20.9198C15.7428 20.5854 12.7869 19.5339 10.1899 17.8498C7.77376 16.3145 5.72527 14.266 4.18993 11.8498C2.49991 9.241 1.44818 6.27079 1.11993 3.17979C1.09494 2.90326 1.12781 2.62455 1.21643 2.36142C1.30506 2.09828 1.4475 1.85648 1.6347 1.65141C1.82189 1.44634 2.04974 1.2825 2.30372 1.17031C2.55771 1.05813 2.83227 1.00005 3.10993 0.999792H6.10993C6.59524 0.995015 7.06572 1.16687 7.43369 1.48332C7.80166 1.79978 8.04201 2.23924 8.10993 2.71979C8.23656 3.67986 8.47138 4.62252 8.80993 5.52979C8.94448 5.88772 8.9736 6.27671 8.89384 6.65067C8.81408 7.02464 8.6288 7.3679 8.35993 7.63979L7.08993 8.90979C8.51349 11.4133 10.5864 13.4862 13.0899 14.9098L14.3599 13.6398C14.6318 13.3709 14.9751 13.1856 15.3491 13.1059C15.723 13.0261 16.112 13.0552 16.4699 13.1898C17.3772 13.5283 18.3199 13.7632 19.2799 13.8898C19.7657 13.9583 20.2093 14.203 20.5265 14.5773C20.8436 14.9516 21.0121 15.4294 20.9999 15.9198Z" stroke="white" stroke-width="2" stroke-linecap="round" stroke-linejoin="round"/>
</svg>
