<svg width="85" height="85" viewBox="0 0 85 85" fill="none" xmlns="http://www.w3.org/2000/svg">
<path fill-rule="evenodd" clip-rule="evenodd" d="M42.5 85C65.9721 85 85 65.9721 85 42.5C85 19.0279 65.9721 0 42.5 0C19.0279 0 0 19.0279 0 42.5C0 65.9721 19.0279 85 42.5 85ZM47.43 80.07C68.1793 80.07 85 63.2493 85 42.5C85 21.7507 68.1793 4.93 47.43 4.93C26.6807 4.93 9.86 21.7507 9.86 42.5C9.86 63.2493 26.6807 80.07 47.43 80.07Z" fill="url(#paint0_radial_2_4443)"/>
<circle cx="42.4995" cy="42.5" r="32.64" fill="url(#paint1_radial_2_4443)"/>
<path fill-rule="evenodd" clip-rule="evenodd" d="M47.4295 80.07C68.1788 80.07 84.9995 63.2494 84.9995 42.5C84.9995 21.7507 68.1788 4.93004 47.4295 4.93004C26.6802 4.93004 9.8595 21.7507 9.8595 42.5C9.8595 63.2494 26.6802 80.07 47.4295 80.07ZM42.4995 75.14C60.5261 75.14 75.1395 60.5266 75.1395 42.5C75.1395 24.4735 60.5261 9.86004 42.4995 9.86004C24.4729 9.86004 9.8595 24.4735 9.8595 42.5C9.8595 60.5266 24.4729 75.14 42.4995 75.14Z" fill="url(#paint2_radial_2_4443)"/>
<path d="M29.9308 31.2014C26.8237 29.2712 23.5282 27.6705 20.1386 26.3524C17.2198 30.6835 15.525 35.862 15.525 41.4643C15.525 44.2419 15.9487 46.9253 16.749 49.4675C18.1614 46.2191 19.9503 43.0649 22.1159 40.052C24.4227 36.7565 27.059 33.7906 29.9308 31.2014ZM21.6451 24.3751C25.3172 25.6462 28.848 27.2939 32.2376 29.2241C32.9908 28.565 33.7912 28.0001 34.5444 27.4351C30.9665 25.4579 27.1532 23.8572 23.2458 22.6332C22.6808 23.1981 22.1159 23.7631 21.6451 24.3751ZM24.9405 21.0326C29.1775 22.1624 33.2262 23.716 37.0395 25.7403C37.934 25.1754 38.8285 24.6576 39.6759 24.1397C35.6272 22.0683 31.3431 20.5618 26.9178 19.479C26.2116 19.9498 25.5526 20.4676 24.9405 21.0326ZM28.9422 18.2079C33.6028 19.1495 38.1223 20.6559 42.3593 22.7274C46.6434 20.6559 51.1628 19.1495 55.7764 18.2079C51.869 15.9011 47.2554 14.5829 42.3593 14.5829C37.4632 14.5829 32.8967 15.9011 28.9422 18.2079ZM57.8008 19.5261C53.3755 20.5618 49.0914 22.1154 45.0427 24.1397C45.9372 24.6576 46.7846 25.1754 47.6791 25.7403C51.5395 23.716 55.5881 22.1624 59.778 21.0326C59.166 20.4676 58.507 19.9498 57.8008 19.5261ZM61.4729 22.6803C57.5654 23.8572 53.7992 25.4579 50.1742 27.4351C50.9745 28.0001 51.7748 28.6121 52.5281 29.2241C55.8706 27.2939 59.4014 25.6462 63.0735 24.3751C62.6027 23.7631 62.0849 23.1981 61.4729 22.6803ZM64.58 26.3994C61.1904 27.6705 57.942 29.2712 54.8349 31.2014C57.7066 33.7906 60.2959 36.7565 62.6498 40.052C64.7683 43.0649 66.5573 46.2191 68.0167 49.4675C68.7699 46.8782 69.1936 44.2419 69.1936 41.4643C69.1936 35.862 67.4988 30.6835 64.58 26.3994ZM62.2732 44.8539C59.4485 40.2873 56.0589 36.2387 52.2927 32.802C51.4453 33.414 50.5508 34.026 49.7505 34.638C56.106 40.5698 61.2375 48.0081 64.4858 56.6704C65.2391 55.5405 65.9452 54.3636 66.5102 53.1867C65.3332 50.362 63.9209 47.5844 62.2732 44.8539ZM47.3495 32.6137C48.1969 32.0017 49.0443 31.3897 49.9388 30.8247C49.1856 30.1656 48.3852 29.5536 47.5849 28.9416C46.6904 29.5066 45.796 30.0715 44.9015 30.6835H44.9486C45.7489 31.2955 46.5492 31.9546 47.3495 32.6137ZM42.3593 28.8475C43.2538 28.2825 44.1953 27.7176 45.0427 27.1997C44.1483 26.6348 43.2538 26.0699 42.3593 25.552C41.4648 26.0699 40.6174 26.6348 39.723 27.1997C40.6174 27.7176 41.4648 28.2825 42.3593 28.8475ZM39.8171 30.6835C38.9226 30.0715 38.0752 29.5066 37.1808 28.9416C36.3804 29.5536 35.5801 30.1656 34.7798 30.7777C35.6743 31.3897 36.5217 31.9546 37.3691 32.5666C38.1694 31.9075 38.9697 31.2955 39.8171 30.6835ZM42.3593 32.5666C41.559 33.1786 40.7587 33.8377 39.9113 34.5439C40.7587 35.203 41.559 35.9091 42.3593 36.6153C43.1596 35.9091 43.9599 35.203 44.8073 34.5439C44.007 33.8848 43.2067 33.1786 42.3593 32.5666ZM42.3593 41.3701C38.7814 45.2305 35.6272 49.6558 33.085 54.599C31.3431 57.8944 29.9779 61.3311 28.9422 64.7678C32.8967 66.9804 37.4632 68.2986 42.3593 68.2986C47.2554 68.2986 51.8219 66.9804 55.7764 64.7678C54.7407 61.3311 53.3755 57.8944 51.6336 54.599C49.0914 49.6558 45.9843 45.2305 42.3593 41.3701ZM26.8237 59.2126C29.8837 51.3977 34.4032 44.5714 39.9583 38.9221C39.158 38.1689 38.3577 37.4627 37.5103 36.7094C31.0607 42.9708 25.8821 50.7386 22.7279 59.7305C23.6224 60.7191 24.5639 61.6136 25.5996 62.461C25.9763 61.3782 26.4 60.2954 26.8237 59.2126ZM44.7603 38.9221C50.3154 44.5714 54.8349 51.3977 57.942 59.2126C58.3657 60.2954 58.7424 61.3782 59.119 62.461C60.1547 61.6136 61.1433 60.7191 62.0378 59.7305C58.8365 50.7386 53.658 42.9708 47.2083 36.7094C46.3609 37.4627 45.5606 38.1689 44.7603 38.9221ZM20.2328 56.6704C23.4811 48.0081 28.6126 40.6169 35.0152 34.6851C34.1678 34.026 33.3204 33.414 32.4259 32.802C28.6597 36.2857 25.2701 40.3344 22.4454 44.901C20.7977 47.5844 19.3854 50.362 18.2084 53.1867C18.7734 54.4107 19.4795 55.5405 20.2328 56.6704ZM42.5005 11.05C59.0719 11.05 73.9505 25.9286 73.9505 42.5C73.9505 59.0714 59.0719 73.95 42.5005 73.95C25.9292 73.95 11.0505 59.0714 11.0505 42.5C11.0505 25.9286 25.9292 11.05 42.5005 11.05Z" fill="#004D85"/>
<mask id="path-5-outside-1_2_4443" maskUnits="userSpaceOnUse" x="11.7502" y="30.6199" width="61" height="42" fill="black">
<rect fill="white" x="11.7502" y="30.6199" width="61" height="42"/>
<path fill-rule="evenodd" clip-rule="evenodd" d="M17.9081 54.8137C18.4978 55.4956 19.1277 56.1418 19.7946 56.749C20.3106 57.1702 20.9311 57.4449 21.5908 57.5443C22.2504 57.6437 22.9248 57.5641 23.5428 57.3138L24.917 56.7543C25.3415 56.5789 25.8038 56.5138 26.2605 56.5652C26.7172 56.6166 27.1532 56.7828 27.5277 57.0481C26.2913 57.0112 25.477 57.6445 24.4843 58.248C23.855 58.6302 23.1257 58.817 22.3894 58.7846C22.911 59.1365 23.4409 59.4614 23.9791 59.7593C24.5527 60.0527 25.1953 60.1863 25.8389 60.146C26.4824 60.1058 27.1032 59.8931 27.6355 59.5306L28.4427 58.9852C28.7871 58.7548 29.1811 58.6081 29.5928 58.5571C30.0045 58.5061 30.4225 58.552 30.8131 58.6914C30.1845 58.8088 29.6094 59.1217 29.1704 59.5851L28.8278 59.937C28.3075 60.5316 27.6056 60.9396 26.83 61.0982C27.3246 61.2882 27.8233 61.4594 28.3261 61.6119C28.8474 61.7641 29.4012 61.7667 29.9239 61.6195C30.4466 61.4723 30.9171 61.1812 31.2812 60.7797L31.7617 60.2519C32.0071 59.9767 32.3201 59.7696 32.67 59.6512C33.0199 59.5328 33.3947 59.507 33.7577 59.5763C33.3207 59.7768 32.9523 60.1003 32.6979 60.507L32.2633 61.1879C31.9728 61.6474 31.5601 62.0177 31.071 62.2576C31.4897 62.3297 31.9118 62.3896 32.3322 62.4335C33.4238 62.5233 34.3406 61.8811 34.8546 61.1052C35.2926 60.4419 35.9639 59.8086 36.7534 59.937C37.2144 60.0126 37.4176 60.4226 37.4282 60.8167C37.4547 61.9673 35.9851 64.1806 35.7148 65.1395C35.3615 66.4132 36.386 66.6296 36.7746 66.2936C36.3701 67.4143 36.6404 68.8605 37.6967 69.2247L37.6843 69.2722C37.616 69.5961 37.4686 69.8983 37.2551 70.1519C36.605 70.1519 36.5838 69.5819 35.8791 69.376C34.9959 69.1209 34.4059 70.1976 35.2626 70.7589C35.2079 70.2698 35.5364 70.1361 35.7925 70.2311C35.9462 70.3272 36.0815 70.4499 36.1917 70.5935C35.7731 70.7448 35.4852 70.9929 35.5152 71.4345C35.5329 71.7864 35.8561 72.1224 36.4673 72.0995C36.1741 71.8321 36.2394 71.5224 36.4461 71.3694C36.5523 71.3093 36.6695 71.2709 36.7908 71.2564C36.9121 71.2419 37.0351 71.2516 37.1526 71.2849C37.3583 71.4004 37.5867 71.47 37.8221 71.489C38.0663 71.4781 38.3092 71.4463 38.548 71.394C38.8183 71.3729 39.1945 71.394 39.2281 71.7107C39.2405 71.8045 39.2252 71.8998 39.1841 71.9851C39.143 72.0704 39.0779 72.142 38.9967 72.191C39.9576 72.5534 40.5458 71.1354 39.4683 70.8398C38.8501 70.6639 38.4792 70.1853 38.6523 69.5801C38.6664 69.5273 38.6841 69.4745 38.7035 69.42C38.9372 69.8451 39.2998 70.1857 39.7394 70.3933C40.1791 70.6009 40.6734 70.6648 41.1517 70.5759C41.2759 70.8276 41.4684 71.0395 41.7074 71.1878C41.9464 71.336 42.2223 71.4146 42.5038 71.4146C42.7854 71.4146 43.0613 71.336 43.3002 71.1878C43.5392 71.0395 43.7318 70.8276 43.856 70.5759C44.3343 70.6651 44.8286 70.6013 45.2684 70.3936C45.7081 70.186 46.0706 69.8452 46.3041 69.42C46.3236 69.4745 46.3412 69.5273 46.3554 69.5801C46.532 70.1853 46.1575 70.6709 45.5393 70.8398C44.4618 71.1371 45.05 72.5534 46.0109 72.191C45.93 72.1416 45.8652 72.07 45.8241 71.9848C45.7831 71.8996 45.7676 71.8044 45.7795 71.7107C45.8131 71.3993 46.1893 71.3729 46.4596 71.394C46.6984 71.4463 46.9413 71.4781 47.1856 71.489C47.421 71.4704 47.6494 71.4007 47.855 71.2849C47.9725 71.2515 48.0955 71.2417 48.2168 71.2562C48.3381 71.2707 48.4553 71.3092 48.5616 71.3694C48.7682 71.5224 48.8336 71.8321 48.5404 72.0995C49.1515 72.1224 49.4748 71.7934 49.4924 71.4345C49.5136 70.9929 49.2363 70.7448 48.8159 70.5935C48.9263 70.4494 49.0622 70.3266 49.2169 70.2311C49.4765 70.1273 49.8051 70.261 49.7468 70.7589C50.6035 70.1976 50.0064 69.1209 49.1303 69.376C48.4238 69.5819 48.4043 70.1431 47.7561 70.1519C47.5413 69.8989 47.3932 69.5965 47.3251 69.2722L47.3127 69.2247C48.3726 68.8605 48.6393 67.4143 48.2365 66.2936C48.6198 66.6296 49.6496 66.4132 49.2964 65.1395C49.0279 64.1806 47.5565 61.9726 47.5848 60.8167C47.5936 60.4261 47.7967 60.0162 48.2577 59.937C49.0473 59.8086 49.7185 60.4419 50.1566 61.1052C50.6706 61.8811 51.5873 62.5233 52.6789 62.4335C53.1005 62.3866 53.5209 62.328 53.9401 62.2576C53.451 62.0177 53.0383 61.6474 52.7478 61.1879L52.3098 60.5C52.0554 60.0933 51.6869 59.7697 51.25 59.5693C51.6129 59.4999 51.9877 59.5257 52.3377 59.6442C52.6876 59.7626 53.0006 59.9696 53.2459 60.2449L53.7264 60.7727C54.0905 61.1742 54.561 61.4652 55.0837 61.6124C55.6064 61.7596 56.1602 61.757 56.6815 61.6049C57.1855 61.4512 57.6842 61.28 58.1776 61.0911C57.4021 60.9322 56.7003 60.5243 56.1799 59.93L55.8372 59.5781C55.3982 59.1147 54.8231 58.8018 54.1945 58.6843C54.5843 58.5472 55.0008 58.5029 55.4109 58.5548C55.821 58.6067 56.2132 58.7535 56.5561 58.9834L57.3633 59.5288C57.8956 59.8914 58.5163 60.104 59.1599 60.1443C59.8035 60.1845 60.4461 60.0509 61.0197 59.7575C61.5579 59.4561 62.0878 59.1312 62.6094 58.7828C61.8731 58.8152 61.1438 58.6284 60.5145 58.2462C59.5218 57.6428 58.7005 57.0147 57.4711 57.0463C57.8459 56.7816 58.2821 56.616 58.7388 56.5653C59.1954 56.5145 59.6576 56.5801 60.0818 56.756L61.456 57.3155C62.074 57.5658 62.7484 57.6455 63.408 57.5461C64.0677 57.4467 64.6882 57.1719 65.2042 56.7508C65.8715 56.144 66.5015 55.4978 67.0907 54.8155C66.2078 55.0863 65.2659 55.1028 64.374 54.863L62.8974 54.4689C62.1796 54.2792 61.424 54.284 60.7088 54.4829C61.0889 54.0913 61.5545 53.7923 62.0695 53.6092C62.5845 53.4261 63.135 53.3639 63.6781 53.4273L64.9145 53.561C65.8339 53.659 66.7624 53.4953 67.5922 53.0889C68.4219 52.6825 69.119 52.0501 69.6025 51.2651C70.0688 50.4521 70.4818 49.61 70.8389 48.7439C69.9763 49.4486 68.8952 49.834 67.7796 49.8347L65.9196 49.8576C65.1797 49.8638 64.4555 50.0706 63.8247 50.4557C64.0619 50.022 64.3866 49.6418 64.7785 49.339C65.1703 49.0362 65.6207 48.8174 66.1015 48.6964L67.9562 48.2143C70.9749 47.4138 72.2502 44.8926 72.2502 41.9897C72.2502 41.5334 72.2373 41.0801 72.2114 40.6297C71.5688 41.7805 70.5513 42.6786 69.3269 43.1755L67.58 43.8792C66.9744 44.1183 66.424 44.4775 65.962 44.9348C66.1563 43.4728 66.8876 42.6142 68.0816 41.768C68.7342 41.3312 69.3573 40.8522 69.9469 40.3341C72.3721 38.0838 72.4516 34.5 71.1162 31.6445C68.9966 37.6264 62.8143 39.4016 59.1862 41.1258C57.4199 41.965 56.6321 42.996 56.6603 44.4088C56.6771 45.0364 56.8973 45.6418 57.2879 46.1345C57.6785 46.6273 58.2186 46.981 58.8277 47.1428L58.7605 47.3188L58.704 47.4666L58.6934 47.4912C57.9869 49.24 56.6497 50.7337 54.9169 51.8404C53.2509 52.8665 51.384 53.5263 49.4412 53.7757H49.3847H49.3052C48.9396 53.8197 48.5686 53.8513 48.1941 53.8672H48.18C46.9135 53.9164 45.5888 53.4168 44.7974 52.4016C44.0662 51.4621 43.8242 50.1954 43.7005 48.8934C43.6157 47.9997 43.8153 47.2255 44.7109 46.8825C45.0094 46.7681 45.4369 46.8191 45.7248 46.469C44.7833 46.5024 44.6279 46.1893 44.0503 46.1981C44.4707 46.0221 44.8557 45.438 45.4739 45.4275C45.5661 45.4226 45.6579 45.4418 45.7403 45.4832C45.8227 45.5245 45.8929 45.5866 45.9438 45.6632C46.1946 44.8996 45.2178 44.5513 44.2817 44.8645C43.803 44.4422 42.8686 44.5847 42.2185 45.0193C41.1817 45.7107 40.5087 46.9546 40.1537 48.3005C39.7827 49.708 39.8004 50.6686 39.3818 51.9565C38.8625 53.5945 37.5854 53.9411 36.1405 53.8214H36.1069C31.8942 53.4344 28.2343 51.2615 26.6233 48.1633L26.5438 48.0067V47.9926L26.4767 47.8501L26.4608 47.8167L26.4043 47.6918L26.3831 47.6407L26.3283 47.5123L26.3107 47.4701L26.2612 47.3399L26.2436 47.2942L26.18 47.1182C26.7893 46.9569 27.3297 46.6033 27.7204 46.1104C28.1111 45.6176 28.3311 45.0119 28.3473 44.3842C28.3756 42.9767 27.5842 41.9404 25.8214 41.1012C22.1951 39.377 16.0146 37.6 13.8914 31.6199C12.556 34.4754 12.6355 38.0592 15.0607 40.3095C15.648 40.8279 16.2687 41.3075 16.9189 41.7451C18.1201 42.5896 18.8513 43.4482 19.0386 44.912C18.5768 44.4542 18.0263 44.0951 17.4206 43.8563L15.6736 43.1526C14.4493 42.6557 13.4317 41.7577 12.7892 40.6068C12.7621 41.0572 12.7491 41.5105 12.7503 41.9668C12.7503 44.8697 14.0256 47.3909 17.0443 48.1914L18.899 48.6735C19.3798 48.7945 19.8303 49.0133 20.2221 49.3161C20.6139 49.6189 20.9386 49.9991 21.1759 50.4329C20.5456 50.048 19.822 49.8412 19.0827 49.8347H17.2174C16.107 49.8298 15.0322 49.444 14.174 48.7421C14.5311 49.6082 14.9441 50.4504 15.4105 51.2633C15.8939 52.0484 16.591 52.6808 17.4208 53.0872C18.2505 53.4936 19.179 53.6573 20.0984 53.5593L21.3348 53.4256C21.878 53.362 22.4285 53.4242 22.9435 53.6073C23.4585 53.7904 23.9241 54.0894 24.3041 54.4812C23.5889 54.2823 22.8333 54.2774 22.1156 54.4671L20.6389 54.8612C19.747 55.1011 18.8051 55.0846 17.9222 54.8137H17.9081Z"/>
</mask>
<path fill-rule="evenodd" clip-rule="evenodd" d="M17.9081 54.8137C18.4978 55.4956 19.1277 56.1418 19.7946 56.749C20.3106 57.1702 20.9311 57.4449 21.5908 57.5443C22.2504 57.6437 22.9248 57.5641 23.5428 57.3138L24.917 56.7543C25.3415 56.5789 25.8038 56.5138 26.2605 56.5652C26.7172 56.6166 27.1532 56.7828 27.5277 57.0481C26.2913 57.0112 25.477 57.6445 24.4843 58.248C23.855 58.6302 23.1257 58.817 22.3894 58.7846C22.911 59.1365 23.4409 59.4614 23.9791 59.7593C24.5527 60.0527 25.1953 60.1863 25.8389 60.146C26.4824 60.1058 27.1032 59.8931 27.6355 59.5306L28.4427 58.9852C28.7871 58.7548 29.1811 58.6081 29.5928 58.5571C30.0045 58.5061 30.4225 58.552 30.8131 58.6914C30.1845 58.8088 29.6094 59.1217 29.1704 59.5851L28.8278 59.937C28.3075 60.5316 27.6056 60.9396 26.83 61.0982C27.3246 61.2882 27.8233 61.4594 28.3261 61.6119C28.8474 61.7641 29.4012 61.7667 29.9239 61.6195C30.4466 61.4723 30.9171 61.1812 31.2812 60.7797L31.7617 60.2519C32.0071 59.9767 32.3201 59.7696 32.67 59.6512C33.0199 59.5328 33.3947 59.507 33.7577 59.5763C33.3207 59.7768 32.9523 60.1003 32.6979 60.507L32.2633 61.1879C31.9728 61.6474 31.5601 62.0177 31.071 62.2576C31.4897 62.3297 31.9118 62.3896 32.3322 62.4335C33.4238 62.5233 34.3406 61.8811 34.8546 61.1052C35.2926 60.4419 35.9639 59.8086 36.7534 59.937C37.2144 60.0126 37.4176 60.4226 37.4282 60.8167C37.4547 61.9673 35.9851 64.1806 35.7148 65.1395C35.3615 66.4132 36.386 66.6296 36.7746 66.2936C36.3701 67.4143 36.6404 68.8605 37.6967 69.2247L37.6843 69.2722C37.616 69.5961 37.4686 69.8983 37.2551 70.1519C36.605 70.1519 36.5838 69.5819 35.8791 69.376C34.9959 69.1209 34.4059 70.1976 35.2626 70.7589C35.2079 70.2698 35.5364 70.1361 35.7925 70.2311C35.9462 70.3272 36.0815 70.4499 36.1917 70.5935C35.7731 70.7448 35.4852 70.9929 35.5152 71.4345C35.5329 71.7864 35.8561 72.1224 36.4673 72.0995C36.1741 71.8321 36.2394 71.5224 36.4461 71.3694C36.5523 71.3093 36.6695 71.2709 36.7908 71.2564C36.9121 71.2419 37.0351 71.2516 37.1526 71.2849C37.3583 71.4004 37.5867 71.47 37.8221 71.489C38.0663 71.4781 38.3092 71.4463 38.548 71.394C38.8183 71.3729 39.1945 71.394 39.2281 71.7107C39.2405 71.8045 39.2252 71.8998 39.1841 71.9851C39.143 72.0704 39.0779 72.142 38.9967 72.191C39.9576 72.5534 40.5458 71.1354 39.4683 70.8398C38.8501 70.6639 38.4792 70.1853 38.6523 69.5801C38.6664 69.5273 38.6841 69.4745 38.7035 69.42C38.9372 69.8451 39.2998 70.1857 39.7394 70.3933C40.1791 70.6009 40.6734 70.6648 41.1517 70.5759C41.2759 70.8276 41.4684 71.0395 41.7074 71.1878C41.9464 71.336 42.2223 71.4146 42.5038 71.4146C42.7854 71.4146 43.0613 71.336 43.3002 71.1878C43.5392 71.0395 43.7318 70.8276 43.856 70.5759C44.3343 70.6651 44.8286 70.6013 45.2684 70.3936C45.7081 70.186 46.0706 69.8452 46.3041 69.42C46.3236 69.4745 46.3412 69.5273 46.3554 69.5801C46.532 70.1853 46.1575 70.6709 45.5393 70.8398C44.4618 71.1371 45.05 72.5534 46.0109 72.191C45.93 72.1416 45.8652 72.07 45.8241 71.9848C45.7831 71.8996 45.7676 71.8044 45.7795 71.7107C45.8131 71.3993 46.1893 71.3729 46.4596 71.394C46.6984 71.4463 46.9413 71.4781 47.1856 71.489C47.421 71.4704 47.6494 71.4007 47.855 71.2849C47.9725 71.2515 48.0955 71.2417 48.2168 71.2562C48.3381 71.2707 48.4553 71.3092 48.5616 71.3694C48.7682 71.5224 48.8336 71.8321 48.5404 72.0995C49.1515 72.1224 49.4748 71.7934 49.4924 71.4345C49.5136 70.9929 49.2363 70.7448 48.8159 70.5935C48.9263 70.4494 49.0622 70.3266 49.2169 70.2311C49.4765 70.1273 49.8051 70.261 49.7468 70.7589C50.6035 70.1976 50.0064 69.1209 49.1303 69.376C48.4238 69.5819 48.4043 70.1431 47.7561 70.1519C47.5413 69.8989 47.3932 69.5965 47.3251 69.2722L47.3127 69.2247C48.3726 68.8605 48.6393 67.4143 48.2365 66.2936C48.6198 66.6296 49.6496 66.4132 49.2964 65.1395C49.0279 64.1806 47.5565 61.9726 47.5848 60.8167C47.5936 60.4261 47.7967 60.0162 48.2577 59.937C49.0473 59.8086 49.7185 60.4419 50.1566 61.1052C50.6706 61.8811 51.5873 62.5233 52.6789 62.4335C53.1005 62.3866 53.5209 62.328 53.9401 62.2576C53.451 62.0177 53.0383 61.6474 52.7478 61.1879L52.3098 60.5C52.0554 60.0933 51.6869 59.7697 51.25 59.5693C51.6129 59.4999 51.9877 59.5257 52.3377 59.6442C52.6876 59.7626 53.0006 59.9696 53.2459 60.2449L53.7264 60.7727C54.0905 61.1742 54.561 61.4652 55.0837 61.6124C55.6064 61.7596 56.1602 61.757 56.6815 61.6049C57.1855 61.4512 57.6842 61.28 58.1776 61.0911C57.4021 60.9322 56.7003 60.5243 56.1799 59.93L55.8372 59.5781C55.3982 59.1147 54.8231 58.8018 54.1945 58.6843C54.5843 58.5472 55.0008 58.5029 55.4109 58.5548C55.821 58.6067 56.2132 58.7535 56.5561 58.9834L57.3633 59.5288C57.8956 59.8914 58.5163 60.104 59.1599 60.1443C59.8035 60.1845 60.4461 60.0509 61.0197 59.7575C61.5579 59.4561 62.0878 59.1312 62.6094 58.7828C61.8731 58.8152 61.1438 58.6284 60.5145 58.2462C59.5218 57.6428 58.7005 57.0147 57.4711 57.0463C57.8459 56.7816 58.2821 56.616 58.7388 56.5653C59.1954 56.5145 59.6576 56.5801 60.0818 56.756L61.456 57.3155C62.074 57.5658 62.7484 57.6455 63.408 57.5461C64.0677 57.4467 64.6882 57.1719 65.2042 56.7508C65.8715 56.144 66.5015 55.4978 67.0907 54.8155C66.2078 55.0863 65.2659 55.1028 64.374 54.863L62.8974 54.4689C62.1796 54.2792 61.424 54.284 60.7088 54.4829C61.0889 54.0913 61.5545 53.7923 62.0695 53.6092C62.5845 53.4261 63.135 53.3639 63.6781 53.4273L64.9145 53.561C65.8339 53.659 66.7624 53.4953 67.5922 53.0889C68.4219 52.6825 69.119 52.0501 69.6025 51.2651C70.0688 50.4521 70.4818 49.61 70.8389 48.7439C69.9763 49.4486 68.8952 49.834 67.7796 49.8347L65.9196 49.8576C65.1797 49.8638 64.4555 50.0706 63.8247 50.4557C64.0619 50.022 64.3866 49.6418 64.7785 49.339C65.1703 49.0362 65.6207 48.8174 66.1015 48.6964L67.9562 48.2143C70.9749 47.4138 72.2502 44.8926 72.2502 41.9897C72.2502 41.5334 72.2373 41.0801 72.2114 40.6297C71.5688 41.7805 70.5513 42.6786 69.3269 43.1755L67.58 43.8792C66.9744 44.1183 66.424 44.4775 65.962 44.9348C66.1563 43.4728 66.8876 42.6142 68.0816 41.768C68.7342 41.3312 69.3573 40.8522 69.9469 40.3341C72.3721 38.0838 72.4516 34.5 71.1162 31.6445C68.9966 37.6264 62.8143 39.4016 59.1862 41.1258C57.4199 41.965 56.6321 42.996 56.6603 44.4088C56.6771 45.0364 56.8973 45.6418 57.2879 46.1345C57.6785 46.6273 58.2186 46.981 58.8277 47.1428L58.7605 47.3188L58.704 47.4666L58.6934 47.4912C57.9869 49.24 56.6497 50.7337 54.9169 51.8404C53.2509 52.8665 51.384 53.5263 49.4412 53.7757H49.3847H49.3052C48.9396 53.8197 48.5686 53.8513 48.1941 53.8672H48.18C46.9135 53.9164 45.5888 53.4168 44.7974 52.4016C44.0662 51.4621 43.8242 50.1954 43.7005 48.8934C43.6157 47.9997 43.8153 47.2255 44.7109 46.8825C45.0094 46.7681 45.4369 46.8191 45.7248 46.469C44.7833 46.5024 44.6279 46.1893 44.0503 46.1981C44.4707 46.0221 44.8557 45.438 45.4739 45.4275C45.5661 45.4226 45.6579 45.4418 45.7403 45.4832C45.8227 45.5245 45.8929 45.5866 45.9438 45.6632C46.1946 44.8996 45.2178 44.5513 44.2817 44.8645C43.803 44.4422 42.8686 44.5847 42.2185 45.0193C41.1817 45.7107 40.5087 46.9546 40.1537 48.3005C39.7827 49.708 39.8004 50.6686 39.3818 51.9565C38.8625 53.5945 37.5854 53.9411 36.1405 53.8214H36.1069C31.8942 53.4344 28.2343 51.2615 26.6233 48.1633L26.5438 48.0067V47.9926L26.4767 47.8501L26.4608 47.8167L26.4043 47.6918L26.3831 47.6407L26.3283 47.5123L26.3107 47.4701L26.2612 47.3399L26.2436 47.2942L26.18 47.1182C26.7893 46.9569 27.3297 46.6033 27.7204 46.1104C28.1111 45.6176 28.3311 45.0119 28.3473 44.3842C28.3756 42.9767 27.5842 41.9404 25.8214 41.1012C22.1951 39.377 16.0146 37.6 13.8914 31.6199C12.556 34.4754 12.6355 38.0592 15.0607 40.3095C15.648 40.8279 16.2687 41.3075 16.9189 41.7451C18.1201 42.5896 18.8513 43.4482 19.0386 44.912C18.5768 44.4542 18.0263 44.0951 17.4206 43.8563L15.6736 43.1526C14.4493 42.6557 13.4317 41.7577 12.7892 40.6068C12.7621 41.0572 12.7491 41.5105 12.7503 41.9668C12.7503 44.8697 14.0256 47.3909 17.0443 48.1914L18.899 48.6735C19.3798 48.7945 19.8303 49.0133 20.2221 49.3161C20.6139 49.6189 20.9386 49.9991 21.1759 50.4329C20.5456 50.048 19.822 49.8412 19.0827 49.8347H17.2174C16.107 49.8298 15.0322 49.444 14.174 48.7421C14.5311 49.6082 14.9441 50.4504 15.4105 51.2633C15.8939 52.0484 16.591 52.6808 17.4208 53.0872C18.2505 53.4936 19.179 53.6573 20.0984 53.5593L21.3348 53.4256C21.878 53.362 22.4285 53.4242 22.9435 53.6073C23.4585 53.7904 23.9241 54.0894 24.3041 54.4812C23.5889 54.2823 22.8333 54.2774 22.1156 54.4671L20.6389 54.8612C19.747 55.1011 18.8051 55.0846 17.9222 54.8137H17.9081Z" fill="white"/>
<path fill-rule="evenodd" clip-rule="evenodd" d="M17.9081 54.8137C18.4978 55.4956 19.1277 56.1418 19.7946 56.749C20.3106 57.1702 20.9311 57.4449 21.5908 57.5443C22.2504 57.6437 22.9248 57.5641 23.5428 57.3138L24.917 56.7543C25.3415 56.5789 25.8038 56.5138 26.2605 56.5652C26.7172 56.6166 27.1532 56.7828 27.5277 57.0481C26.2913 57.0112 25.477 57.6445 24.4843 58.248C23.855 58.6302 23.1257 58.817 22.3894 58.7846C22.911 59.1365 23.4409 59.4614 23.9791 59.7593C24.5527 60.0527 25.1953 60.1863 25.8389 60.146C26.4824 60.1058 27.1032 59.8931 27.6355 59.5306L28.4427 58.9852C28.7871 58.7548 29.1811 58.6081 29.5928 58.5571C30.0045 58.5061 30.4225 58.552 30.8131 58.6914C30.1845 58.8088 29.6094 59.1217 29.1704 59.5851L28.8278 59.937C28.3075 60.5316 27.6056 60.9396 26.83 61.0982C27.3246 61.2882 27.8233 61.4594 28.3261 61.6119C28.8474 61.7641 29.4012 61.7667 29.9239 61.6195C30.4466 61.4723 30.9171 61.1812 31.2812 60.7797L31.7617 60.2519C32.0071 59.9767 32.3201 59.7696 32.67 59.6512C33.0199 59.5328 33.3947 59.507 33.7577 59.5763C33.3207 59.7768 32.9523 60.1003 32.6979 60.507L32.2633 61.1879C31.9728 61.6474 31.5601 62.0177 31.071 62.2576C31.4897 62.3297 31.9118 62.3896 32.3322 62.4335C33.4238 62.5233 34.3406 61.8811 34.8546 61.1052C35.2926 60.4419 35.9639 59.8086 36.7534 59.937C37.2144 60.0126 37.4176 60.4226 37.4282 60.8167C37.4547 61.9673 35.9851 64.1806 35.7148 65.1395C35.3615 66.4132 36.386 66.6296 36.7746 66.2936C36.3701 67.4143 36.6404 68.8605 37.6967 69.2247L37.6843 69.2722C37.616 69.5961 37.4686 69.8983 37.2551 70.1519C36.605 70.1519 36.5838 69.5819 35.8791 69.376C34.9959 69.1209 34.4059 70.1976 35.2626 70.7589C35.2079 70.2698 35.5364 70.1361 35.7925 70.2311C35.9462 70.3272 36.0815 70.4499 36.1917 70.5935C35.7731 70.7448 35.4852 70.9929 35.5152 71.4345C35.5329 71.7864 35.8561 72.1224 36.4673 72.0995C36.1741 71.8321 36.2394 71.5224 36.4461 71.3694C36.5523 71.3093 36.6695 71.2709 36.7908 71.2564C36.9121 71.2419 37.0351 71.2516 37.1526 71.2849C37.3583 71.4004 37.5867 71.47 37.8221 71.489C38.0663 71.4781 38.3092 71.4463 38.548 71.394C38.8183 71.3729 39.1945 71.394 39.2281 71.7107C39.2405 71.8045 39.2252 71.8998 39.1841 71.9851C39.143 72.0704 39.0779 72.142 38.9967 72.191C39.9576 72.5534 40.5458 71.1354 39.4683 70.8398C38.8501 70.6639 38.4792 70.1853 38.6523 69.5801C38.6664 69.5273 38.6841 69.4745 38.7035 69.42C38.9372 69.8451 39.2998 70.1857 39.7394 70.3933C40.1791 70.6009 40.6734 70.6648 41.1517 70.5759C41.2759 70.8276 41.4684 71.0395 41.7074 71.1878C41.9464 71.336 42.2223 71.4146 42.5038 71.4146C42.7854 71.4146 43.0613 71.336 43.3002 71.1878C43.5392 71.0395 43.7318 70.8276 43.856 70.5759C44.3343 70.6651 44.8286 70.6013 45.2684 70.3936C45.7081 70.186 46.0706 69.8452 46.3041 69.42C46.3236 69.4745 46.3412 69.5273 46.3554 69.5801C46.532 70.1853 46.1575 70.6709 45.5393 70.8398C44.4618 71.1371 45.05 72.5534 46.0109 72.191C45.93 72.1416 45.8652 72.07 45.8241 71.9848C45.7831 71.8996 45.7676 71.8044 45.7795 71.7107C45.8131 71.3993 46.1893 71.3729 46.4596 71.394C46.6984 71.4463 46.9413 71.4781 47.1856 71.489C47.421 71.4704 47.6494 71.4007 47.855 71.2849C47.9725 71.2515 48.0955 71.2417 48.2168 71.2562C48.3381 71.2707 48.4553 71.3092 48.5616 71.3694C48.7682 71.5224 48.8336 71.8321 48.5404 72.0995C49.1515 72.1224 49.4748 71.7934 49.4924 71.4345C49.5136 70.9929 49.2363 70.7448 48.8159 70.5935C48.9263 70.4494 49.0622 70.3266 49.2169 70.2311C49.4765 70.1273 49.8051 70.261 49.7468 70.7589C50.6035 70.1976 50.0064 69.1209 49.1303 69.376C48.4238 69.5819 48.4043 70.1431 47.7561 70.1519C47.5413 69.8989 47.3932 69.5965 47.3251 69.2722L47.3127 69.2247C48.3726 68.8605 48.6393 67.4143 48.2365 66.2936C48.6198 66.6296 49.6496 66.4132 49.2964 65.1395C49.0279 64.1806 47.5565 61.9726 47.5848 60.8167C47.5936 60.4261 47.7967 60.0162 48.2577 59.937C49.0473 59.8086 49.7185 60.4419 50.1566 61.1052C50.6706 61.8811 51.5873 62.5233 52.6789 62.4335C53.1005 62.3866 53.5209 62.328 53.9401 62.2576C53.451 62.0177 53.0383 61.6474 52.7478 61.1879L52.3098 60.5C52.0554 60.0933 51.6869 59.7697 51.25 59.5693C51.6129 59.4999 51.9877 59.5257 52.3377 59.6442C52.6876 59.7626 53.0006 59.9696 53.2459 60.2449L53.7264 60.7727C54.0905 61.1742 54.561 61.4652 55.0837 61.6124C55.6064 61.7596 56.1602 61.757 56.6815 61.6049C57.1855 61.4512 57.6842 61.28 58.1776 61.0911C57.4021 60.9322 56.7003 60.5243 56.1799 59.93L55.8372 59.5781C55.3982 59.1147 54.8231 58.8018 54.1945 58.6843C54.5843 58.5472 55.0008 58.5029 55.4109 58.5548C55.821 58.6067 56.2132 58.7535 56.5561 58.9834L57.3633 59.5288C57.8956 59.8914 58.5163 60.104 59.1599 60.1443C59.8035 60.1845 60.4461 60.0509 61.0197 59.7575C61.5579 59.4561 62.0878 59.1312 62.6094 58.7828C61.8731 58.8152 61.1438 58.6284 60.5145 58.2462C59.5218 57.6428 58.7005 57.0147 57.4711 57.0463C57.8459 56.7816 58.2821 56.616 58.7388 56.5653C59.1954 56.5145 59.6576 56.5801 60.0818 56.756L61.456 57.3155C62.074 57.5658 62.7484 57.6455 63.408 57.5461C64.0677 57.4467 64.6882 57.1719 65.2042 56.7508C65.8715 56.144 66.5015 55.4978 67.0907 54.8155C66.2078 55.0863 65.2659 55.1028 64.374 54.863L62.8974 54.4689C62.1796 54.2792 61.424 54.284 60.7088 54.4829C61.0889 54.0913 61.5545 53.7923 62.0695 53.6092C62.5845 53.4261 63.135 53.3639 63.6781 53.4273L64.9145 53.561C65.8339 53.659 66.7624 53.4953 67.5922 53.0889C68.4219 52.6825 69.119 52.0501 69.6025 51.2651C70.0688 50.4521 70.4818 49.61 70.8389 48.7439C69.9763 49.4486 68.8952 49.834 67.7796 49.8347L65.9196 49.8576C65.1797 49.8638 64.4555 50.0706 63.8247 50.4557C64.0619 50.022 64.3866 49.6418 64.7785 49.339C65.1703 49.0362 65.6207 48.8174 66.1015 48.6964L67.9562 48.2143C70.9749 47.4138 72.2502 44.8926 72.2502 41.9897C72.2502 41.5334 72.2373 41.0801 72.2114 40.6297C71.5688 41.7805 70.5513 42.6786 69.3269 43.1755L67.58 43.8792C66.9744 44.1183 66.424 44.4775 65.962 44.9348C66.1563 43.4728 66.8876 42.6142 68.0816 41.768C68.7342 41.3312 69.3573 40.8522 69.9469 40.3341C72.3721 38.0838 72.4516 34.5 71.1162 31.6445C68.9966 37.6264 62.8143 39.4016 59.1862 41.1258C57.4199 41.965 56.6321 42.996 56.6603 44.4088C56.6771 45.0364 56.8973 45.6418 57.2879 46.1345C57.6785 46.6273 58.2186 46.981 58.8277 47.1428L58.7605 47.3188L58.704 47.4666L58.6934 47.4912C57.9869 49.24 56.6497 50.7337 54.9169 51.8404C53.2509 52.8665 51.384 53.5263 49.4412 53.7757H49.3847H49.3052C48.9396 53.8197 48.5686 53.8513 48.1941 53.8672H48.18C46.9135 53.9164 45.5888 53.4168 44.7974 52.4016C44.0662 51.4621 43.8242 50.1954 43.7005 48.8934C43.6157 47.9997 43.8153 47.2255 44.7109 46.8825C45.0094 46.7681 45.4369 46.8191 45.7248 46.469C44.7833 46.5024 44.6279 46.1893 44.0503 46.1981C44.4707 46.0221 44.8557 45.438 45.4739 45.4275C45.5661 45.4226 45.6579 45.4418 45.7403 45.4832C45.8227 45.5245 45.8929 45.5866 45.9438 45.6632C46.1946 44.8996 45.2178 44.5513 44.2817 44.8645C43.803 44.4422 42.8686 44.5847 42.2185 45.0193C41.1817 45.7107 40.5087 46.9546 40.1537 48.3005C39.7827 49.708 39.8004 50.6686 39.3818 51.9565C38.8625 53.5945 37.5854 53.9411 36.1405 53.8214H36.1069C31.8942 53.4344 28.2343 51.2615 26.6233 48.1633L26.5438 48.0067V47.9926L26.4767 47.8501L26.4608 47.8167L26.4043 47.6918L26.3831 47.6407L26.3283 47.5123L26.3107 47.4701L26.2612 47.3399L26.2436 47.2942L26.18 47.1182C26.7893 46.9569 27.3297 46.6033 27.7204 46.1104C28.1111 45.6176 28.3311 45.0119 28.3473 44.3842C28.3756 42.9767 27.5842 41.9404 25.8214 41.1012C22.1951 39.377 16.0146 37.6 13.8914 31.6199C12.556 34.4754 12.6355 38.0592 15.0607 40.3095C15.648 40.8279 16.2687 41.3075 16.9189 41.7451C18.1201 42.5896 18.8513 43.4482 19.0386 44.912C18.5768 44.4542 18.0263 44.0951 17.4206 43.8563L15.6736 43.1526C14.4493 42.6557 13.4317 41.7577 12.7892 40.6068C12.7621 41.0572 12.7491 41.5105 12.7503 41.9668C12.7503 44.8697 14.0256 47.3909 17.0443 48.1914L18.899 48.6735C19.3798 48.7945 19.8303 49.0133 20.2221 49.3161C20.6139 49.6189 20.9386 49.9991 21.1759 50.4329C20.5456 50.048 19.822 49.8412 19.0827 49.8347H17.2174C16.107 49.8298 15.0322 49.444 14.174 48.7421C14.5311 49.6082 14.9441 50.4504 15.4105 51.2633C15.8939 52.0484 16.591 52.6808 17.4208 53.0872C18.2505 53.4936 19.179 53.6573 20.0984 53.5593L21.3348 53.4256C21.878 53.362 22.4285 53.4242 22.9435 53.6073C23.4585 53.7904 23.9241 54.0894 24.3041 54.4812C23.5889 54.2823 22.8333 54.2774 22.1156 54.4671L20.6389 54.8612C19.747 55.1011 18.8051 55.0846 17.9222 54.8137H17.9081Z" stroke="#FCBC00" stroke-width="0.34" mask="url(#path-5-outside-1_2_4443)"/>
<path fill-rule="evenodd" clip-rule="evenodd" d="M42.203 45.8779C42.7329 45.5454 42.7788 45.2498 43.2628 45.051C43.4942 44.956 43.844 44.9402 44.0206 45.1636C43.9128 45.1636 43.8563 45.1636 43.8298 45.3044C43.8203 45.4012 43.7813 45.4927 43.7182 45.5669C43.6551 45.6411 43.5708 45.6943 43.4765 45.7196C43.404 45.7391 43.3278 45.7406 43.2545 45.7241C43.1812 45.7075 43.1132 45.6734 43.0562 45.6246C42.8195 45.4487 42.6093 45.9043 42.203 45.8779Z" fill="#FCBC00"/>
<path fill-rule="evenodd" clip-rule="evenodd" d="M43.3178 54.0571C43.3454 54.1497 43.3597 54.2456 43.3602 54.3422C43.379 54.4673 43.3704 54.595 43.3352 54.7165C43.2999 54.8381 43.2387 54.9506 43.1558 55.0465C43.0729 55.1423 42.9702 55.2192 42.8547 55.272C42.7393 55.3247 42.6137 55.352 42.4867 55.352C42.3597 55.352 42.2341 55.3247 42.1187 55.272C42.0032 55.2192 41.9005 55.1423 41.8176 55.0465C41.7347 54.9506 41.6735 54.8381 41.6382 54.7165C41.603 54.595 41.5944 54.4673 41.6132 54.3422C41.6131 54.2457 41.6268 54.1497 41.6539 54.0571C41.6996 54.2425 41.8064 54.4073 41.9572 54.5251C42.108 54.6429 42.2942 54.7069 42.4858 54.7069C42.6775 54.7069 42.8636 54.6429 43.0144 54.5251C43.1652 54.4073 43.2721 54.2425 43.3178 54.0571Z" fill="#FCBC00"/>
<path fill-rule="evenodd" clip-rule="evenodd" d="M41.4363 54.0571C41.4648 54.1495 41.4791 54.2456 41.4787 54.3422C41.4975 54.4673 41.489 54.595 41.4537 54.7165C41.4184 54.8381 41.3572 54.9506 41.2743 55.0465C41.1914 55.1423 41.0887 55.2192 40.9732 55.272C40.8578 55.3247 40.7323 55.352 40.6052 55.352C40.4782 55.352 40.3527 55.3247 40.2372 55.272C40.1217 55.2192 40.019 55.1423 39.9361 55.0465C39.8532 54.9506 39.792 54.8381 39.7568 54.7165C39.7215 54.595 39.713 54.4673 39.7318 54.3422C39.7322 54.2456 39.7465 54.1497 39.7742 54.0571C39.8205 54.2417 39.9275 54.4056 40.0781 54.5227C40.2286 54.6398 40.4142 54.7034 40.6052 54.7034C40.7963 54.7034 40.9818 54.6398 41.1324 54.5227C41.283 54.4056 41.3899 54.2417 41.4363 54.0571Z" fill="#FCBC00"/>
<path fill-rule="evenodd" clip-rule="evenodd" d="M43.5339 54.0571C43.5068 54.1497 43.4931 54.2457 43.4933 54.3422C43.4736 54.4676 43.4814 54.5959 43.5162 54.7181C43.551 54.8403 43.6119 54.9535 43.6948 55.05C43.7778 55.1465 43.8807 55.224 43.9965 55.2771C44.1123 55.3302 44.2383 55.3577 44.3658 55.3577C44.4934 55.3577 44.6194 55.3302 44.7352 55.2771C44.851 55.224 44.9539 55.1465 45.0368 55.05C45.1198 54.9535 45.1807 54.8403 45.2155 54.7181C45.2503 54.5959 45.2581 54.4676 45.2384 54.3422C45.2385 54.2457 45.2249 54.1497 45.1978 54.0571C45.1521 54.2425 45.0453 54.4073 44.8945 54.5251C44.7436 54.6429 44.5575 54.7069 44.3658 54.7069C44.1742 54.7069 43.9881 54.6429 43.8372 54.5251C43.6864 54.4073 43.5796 54.2425 43.5339 54.0571Z" fill="#FCBC00"/>
<path fill-rule="evenodd" clip-rule="evenodd" d="M42.5952 55.4859C42.5668 55.5782 42.5525 55.6743 42.5528 55.7709C42.534 55.896 42.5425 56.0237 42.5778 56.1453C42.6131 56.2668 42.6743 56.3793 42.7572 56.4752C42.8401 56.571 42.9428 56.648 43.0582 56.7007C43.1737 56.7534 43.2992 56.7807 43.4263 56.7807C43.5533 56.7807 43.6788 56.7534 43.7943 56.7007C43.9098 56.648 44.0125 56.571 44.0954 56.4752C44.1783 56.3793 44.2395 56.2668 44.2747 56.1453C44.31 56.0237 44.3185 55.896 44.2997 55.7709C44.3 55.6743 44.2857 55.5782 44.2573 55.4859C44.2123 55.6716 44.1059 55.8369 43.9552 55.9552C43.8044 56.0734 43.6181 56.1377 43.4263 56.1377C43.2344 56.1377 43.0481 56.0734 42.8974 55.9552C42.7466 55.8369 42.6402 55.6716 42.5952 55.4859Z" fill="#FCBC00"/>
<path fill-rule="evenodd" clip-rule="evenodd" d="M40.7189 55.4859C40.692 55.5785 40.6783 55.6745 40.6783 55.7709C40.6595 55.896 40.668 56.0237 40.7033 56.1453C40.7386 56.2668 40.7998 56.3793 40.8827 56.4752C40.9656 56.571 41.0683 56.648 41.1837 56.7007C41.2992 56.7534 41.4247 56.7807 41.5518 56.7807C41.6788 56.7807 41.8043 56.7534 41.9198 56.7007C42.0353 56.648 42.1379 56.571 42.2209 56.4752C42.3038 56.3793 42.3649 56.2668 42.4002 56.1453C42.4355 56.0237 42.444 55.896 42.4252 55.7709C42.4247 55.6744 42.4104 55.5784 42.3828 55.4859C42.3371 55.6713 42.2303 55.836 42.0795 55.9538C41.9287 56.0716 41.7425 56.1356 41.5509 56.1356C41.3592 56.1356 41.1731 56.0716 41.0223 55.9538C40.8714 55.836 40.7646 55.6713 40.7189 55.4859Z" fill="#FCBC00"/>
<path fill-rule="evenodd" clip-rule="evenodd" d="M43.3178 56.8564C43.3456 56.9489 43.3598 57.0448 43.3602 57.1414C43.379 57.2665 43.3704 57.3942 43.3352 57.5158C43.2999 57.6373 43.2387 57.7498 43.1558 57.8457C43.0729 57.9415 42.9702 58.0185 42.8547 58.0712C42.7393 58.1239 42.6137 58.1512 42.4867 58.1512C42.3597 58.1512 42.2341 58.1239 42.1187 58.0712C42.0032 58.0185 41.9005 57.9415 41.8176 57.8457C41.7347 57.7498 41.6735 57.6373 41.6382 57.5158C41.603 57.3942 41.5944 57.2665 41.6132 57.1414C41.613 57.0449 41.6266 56.9489 41.6539 56.8564C41.6996 57.0418 41.8064 57.2065 41.9572 57.3243C42.108 57.4421 42.2942 57.5061 42.4858 57.5061C42.6775 57.5061 42.8636 57.4421 43.0144 57.3243C43.1652 57.2065 43.2721 57.0418 43.3178 56.8564Z" fill="#FCBC00"/>
<path fill-rule="evenodd" clip-rule="evenodd" d="M17.0943 41.5024C18.2442 42.3099 19.002 43.1544 19.2846 44.4845C19.366 44.8897 19.3945 45.3036 19.3694 45.7161C18.7123 45.0229 18.2054 44.5426 17.2975 44.1784L15.5505 43.4746C14.5813 43.0811 13.7298 42.4462 13.0776 41.6308V41.9827C13.0776 44.7678 14.277 47.157 17.1403 47.8995L18.9932 48.3798C19.8712 48.604 20.6459 49.1205 21.1888 49.8436C21.4568 50.2575 21.6705 50.7039 21.8247 51.1719C21.3648 50.8681 20.8754 50.6111 20.3639 50.4048C19.957 50.2536 19.5264 50.1756 19.0921 50.1743L17.2304 50.1515C16.4255 50.148 15.6328 49.9558 14.9164 49.5902C15.159 50.104 15.4204 50.6077 15.7007 51.1015C16.1517 51.8341 16.8024 52.4238 17.5771 52.8019C18.3518 53.1801 19.2184 53.3311 20.076 53.2374L21.3036 53.1037C22.2362 52.9983 23.176 53.2286 23.9531 53.7529C24.4255 54.1076 24.8422 54.5304 25.1896 55.0073C24.1439 54.7223 23.2872 54.4795 22.2062 54.7698L20.7295 55.1639C20.1071 55.3305 19.4593 55.3818 18.8183 55.3152C19.1857 55.7316 19.5814 56.1333 20.0053 56.5204C20.4767 56.9016 21.042 57.1501 21.6424 57.2402C22.2428 57.3302 22.8565 57.2584 23.4197 57.0324L24.7904 56.4729C25.4708 56.1847 26.2346 56.159 26.933 56.4007C27.5371 56.6048 28.0794 57.0464 28.4468 57.3702C27.8075 57.2956 27.1598 57.3446 26.5391 57.5144C25.8679 57.7256 25.2885 58.1443 24.6508 58.5313C24.2536 58.7726 23.8173 58.9435 23.3614 59.0363C23.6158 59.1923 23.8736 59.3436 24.1351 59.4902C24.6561 59.7541 25.2388 59.8736 25.8221 59.8362C26.4054 59.7987 26.9679 59.6057 27.4505 59.2773L28.2613 58.7302C28.9022 58.2988 29.6871 58.1346 30.448 58.2727C30.9485 58.3841 31.4332 58.5567 31.8912 58.7865C31.0857 58.8938 30.176 59.0345 29.4041 59.8122L29.0597 60.164C28.7042 60.5591 28.2761 60.8828 27.7985 61.1176C28.0034 61.1862 28.2083 61.2513 28.415 61.3129C28.8791 61.4445 29.3709 61.4444 29.8349 61.3126C30.299 61.1808 30.7169 60.9225 31.0415 60.5669L31.522 60.0391C31.7658 59.7649 32.0685 59.5489 32.4076 59.4073C32.7468 59.2656 33.1136 59.202 33.4809 59.221C33.8753 59.2613 34.2626 59.3536 34.6326 59.4955C34.0532 59.7154 33.3255 60.0954 32.9739 60.6725L32.5324 61.3657C32.3631 61.6258 32.16 61.8625 31.9283 62.0694L32.3681 62.1222C33.2672 62.1961 34.0974 61.6736 34.5849 60.9364C35.0724 60.1992 35.8461 59.4744 36.8034 59.6292C37.4022 59.726 37.7343 60.2415 37.7467 60.8132C37.7643 61.5311 37.2962 62.5198 36.9854 63.1602C36.7928 63.5579 36.5879 63.952 36.3936 64.3496C36.246 64.6322 36.122 64.9264 36.0227 65.2293C35.9556 65.4685 35.9167 65.8538 36.1693 66.0192C36.4872 66.2286 36.9889 65.8996 37.2062 65.6937C37.0737 66.1934 36.897 66.876 36.9112 67.4109C36.9306 68.0777 37.1973 68.7023 37.7802 68.9169C38.0328 68.0126 38.1723 67.4742 38.2854 67.0133C38.4338 66.4168 38.2306 65.5389 38.2094 64.7912C38.1777 63.6599 38.916 60.7552 39.105 59.587C40.2531 59.7752 40.8237 62.0501 42.0142 62.2577C41.2123 62.9702 40.9685 65.1343 40.8731 66.1987C40.8007 67.0203 40.5004 67.7592 39.7939 67.4179C39.7144 68.1551 39.3664 68.4137 39.0114 68.8676C38.9637 68.931 38.9213 68.9926 38.8824 69.0541L38.9248 69.1562C39.1085 69.5546 39.4203 69.8806 39.811 70.0826C40.2016 70.2847 40.6487 70.3512 41.0816 70.2716L41.3394 70.2206L41.4419 70.4599C41.5408 70.6553 41.6923 70.8195 41.8794 70.9343C42.0666 71.049 42.282 71.1097 42.5017 71.1097C42.7214 71.1097 42.9369 71.049 43.124 70.9343C43.3111 70.8195 43.4626 70.6553 43.5615 70.4599L43.664 70.2206L43.9219 70.2716C44.3547 70.3512 44.8018 70.2847 45.1924 70.0826C45.5831 69.8806 45.8949 69.5546 46.0786 69.1562L46.121 69.0541C46.0821 68.9926 46.0397 68.931 45.992 68.8676C45.6388 68.4137 45.2855 68.1551 45.2095 67.4179C44.503 67.7592 44.2027 67.0203 44.1303 66.1987C44.0349 65.1343 43.7911 62.9702 42.9892 62.2577C43.7788 62.1152 44.427 60.6743 44.3917 59.9529C44.3934 59.8899 44.3804 59.8273 44.3537 59.7701C44.327 59.7129 44.2874 59.6627 44.2379 59.6233C44.1885 59.5839 44.1305 59.5565 44.0686 59.5432C44.0067 59.5298 43.9426 59.531 43.8812 59.5465C43.4099 59.6404 42.9311 59.6916 42.4505 59.6996C40.4192 59.6996 38.7959 56.9901 38.7782 54.9809C36.3477 55.6847 32.2126 54.6766 30.0665 53.5382C26.2812 51.5308 24.0997 48.1229 23.3649 45.6827C24.347 45.6967 25.5429 45.373 25.5429 44.057C25.5429 43.4553 24.8752 42.6354 23.7058 42.1076C18.2637 39.6568 15.0701 37.4013 13.8796 32.4944C12.931 35.0824 13.1518 38.1244 15.275 40.0967C15.8514 40.6053 16.461 41.0755 17.0996 41.5042L17.0943 41.5024Z" fill="#FCBC00"/>
<path fill-rule="evenodd" clip-rule="evenodd" d="M46.0723 55.5315C45.795 57.5143 45.6837 58.665 46.1023 60.6619C46.3867 62.0306 46.8089 63.9237 46.7877 64.7876C46.7665 65.5353 46.5633 66.4132 46.7117 67.0097C46.8248 67.4706 46.9643 68.009 47.2169 68.9133C47.7998 68.7004 48.0665 68.0741 48.0859 67.4073C48.1001 66.8795 47.9252 66.1898 47.791 65.6901C48.0082 65.896 48.5099 66.2179 48.8278 66.0156C49.0804 65.8502 49.0415 65.4649 48.9744 65.2257C48.8752 64.9228 48.7511 64.6286 48.6035 64.346C48.4092 63.9484 48.2043 63.5543 48.0118 63.1566C47.7009 62.5162 47.2328 61.5275 47.2505 60.8096C47.2628 60.2378 47.5949 59.7223 48.1937 59.6256C49.1511 59.4708 49.9265 60.1974 50.4122 60.9328C50.898 61.6682 51.7299 62.1925 52.629 62.1186L53.0688 62.0658C52.8371 61.8589 52.634 61.6222 52.4648 61.3621L52.0232 60.6689C51.6699 60.0918 50.9439 59.7118 50.3645 59.4919C50.7345 59.35 51.1218 59.2577 51.5162 59.2174C51.8837 59.1988 52.2508 59.263 52.5899 59.4053C52.9291 59.5475 53.2317 59.7641 53.4751 60.039L53.9556 60.5668C54.2809 60.9214 54.6991 61.1785 55.1631 61.3093C55.6271 61.4402 56.1185 61.4396 56.5821 61.3075C56.7888 61.246 56.9937 61.1809 57.1986 61.1123C56.721 60.8774 56.2929 60.5537 55.9374 60.1587L55.593 59.8068C54.8211 59.0292 53.9114 58.8884 53.1059 58.7811C53.5639 58.5513 54.0486 58.3787 54.5491 58.2673C55.31 58.1293 56.0949 58.2935 56.7358 58.7248L57.5466 59.272C58.0293 59.6003 58.5917 59.7934 59.175 59.8308C59.7583 59.8683 60.341 59.7488 60.862 59.4848C61.1235 59.3394 61.3819 59.1881 61.6375 59.0309C61.1809 58.9384 60.744 58.7675 60.3463 58.526C59.7086 58.1389 59.1292 57.7202 58.458 57.5091C57.8374 57.3393 57.1896 57.2903 56.5503 57.3648C56.9178 57.0411 57.46 56.5995 58.0641 56.3954C58.7625 56.1537 59.5263 56.1794 60.2067 56.4675L61.5774 57.027C62.1401 57.2538 62.7536 57.3264 63.354 57.2373C63.9544 57.1482 64.5199 56.9006 64.9918 56.5203C65.411 56.1379 65.8137 55.7415 66.2 55.331C65.559 55.3976 64.9112 55.3463 64.2888 55.1797L62.8209 54.7768C61.7399 54.4882 60.8779 54.7293 59.8375 55.0143C60.1849 54.5373 60.6016 54.1146 61.074 53.7598C61.8511 53.2355 62.7909 53.0052 63.7235 53.1106L64.9512 53.2443C65.8087 53.3381 66.6754 53.1871 67.45 52.8089C68.2247 52.4307 68.8755 51.841 69.3264 51.1085C69.6073 50.6158 69.8705 50.1109 70.1107 49.5972C69.3944 49.9627 68.6017 50.155 67.7968 50.1584L65.935 50.1813C65.5008 50.1825 65.0701 50.2606 64.6633 50.4118C64.1517 50.618 63.6623 50.875 63.2025 51.1788C63.3567 50.7109 63.5704 50.2645 63.8384 49.8505C64.3812 49.1275 65.1559 48.611 66.034 48.3867L67.8886 47.9064C70.7431 47.164 71.9424 44.7747 71.9424 41.9896V41.6378C71.2906 42.4535 70.439 43.0885 69.4695 43.4816L67.7226 44.1853C66.8147 44.5495 66.3095 45.0298 65.6506 45.723C65.6255 45.3106 65.654 44.8966 65.7354 44.4915C66.0181 43.1614 66.7758 42.3169 67.9257 41.5093C68.5644 41.0807 69.1739 40.6105 69.7504 40.1018C71.87 38.1331 72.0961 35.0876 71.1476 32.4996C69.9553 37.4082 66.7317 39.6726 61.3195 42.1128C60.1484 42.6406 59.4701 43.4482 59.4825 44.0622C59.509 45.3835 60.6783 45.7019 61.6604 45.6878C60.9256 48.1281 58.7442 51.536 54.9589 53.5434C53.0159 54.5762 48.6335 55.7444 46.1376 54.9509C46.1371 55.147 46.123 55.3427 46.0952 55.5368L46.0723 55.5315Z" fill="#FCBC00"/>
<path d="M14.4965 72.522C14.409 72.2178 14.3988 71.8956 14.468 71.5849C14.5489 71.2219 14.7348 70.8907 15.0024 70.6325C15.2138 70.4037 15.4948 70.2511 15.8018 70.1985C16.0503 70.1493 16.307 70.1622 16.5493 70.2361C16.792 70.3101 17.0125 70.443 17.1914 70.6229L17.1914 70.6229C17.4734 70.9068 17.5892 71.1857 17.5898 71.4383C17.5905 71.6886 17.478 71.8993 17.3285 72.0489C17.2747 72.1123 17.2089 72.1643 17.1348 72.202C17.0596 72.2403 16.9773 72.263 16.8931 72.2688C16.8089 72.2745 16.7243 72.2632 16.6446 72.2356C16.5648 72.2079 16.4915 72.1644 16.4289 72.1077L16.4278 72.1067L16.4278 72.1067C16.3705 72.0529 16.3243 71.9882 16.292 71.9165C16.2597 71.8448 16.2419 71.7674 16.2396 71.6888C16.2373 71.6101 16.2506 71.5318 16.2787 71.4583C16.2944 71.4174 16.3145 71.3784 16.3385 71.342L16.3228 71.3325L16.3935 71.256C16.4194 71.228 16.4479 71.2026 16.4784 71.1802C16.3823 71.1599 16.2827 71.1581 16.1849 71.1756C16.0267 71.204 15.8815 71.2816 15.7698 71.3973L15.7686 71.3986C15.5587 71.6069 15.5102 71.8455 15.5465 72.0685C15.5833 72.2952 15.7083 72.5062 15.8457 72.6445L15.8466 72.6454L15.8466 72.6454C15.9633 72.7665 16.1078 72.8573 16.2676 72.91C16.4273 72.9627 16.5975 72.9757 16.7634 72.9479L16.7641 72.9477L16.7641 72.9478C16.9905 72.9117 17.2034 72.8169 17.3818 72.6729L17.4415 72.6248L17.4955 72.6792L17.5135 72.6973L17.5753 72.7595L17.5113 72.8193C17.4659 72.8617 17.4353 72.9176 17.4239 72.9786L17.4232 72.9826L17.4231 72.9826C17.4084 73.0446 17.4126 73.1069 17.422 73.1739C17.4236 73.1859 17.4256 73.1987 17.4277 73.212C17.4359 73.2651 17.4454 73.3263 17.4419 73.3803C17.4419 73.3807 17.4418 73.381 17.4418 73.3814L17.357 73.3756C17.3538 73.453 17.3351 73.5282 17.3027 73.5973L14.4965 72.522ZM14.4965 72.522C14.3959 72.4842 14.3029 72.4278 14.2225 72.3551C14.1042 72.2483 14.018 72.1107 13.9735 71.9577L13.9298 71.8077L13.8276 71.9259C13.6849 72.0907 13.4998 72.2134 13.2924 72.2806C13.1043 72.3415 12.9045 72.3546 12.7107 72.3194C12.6991 72.1254 12.7332 71.9312 12.8103 71.7523C12.8956 71.5546 13.0307 71.3824 13.2024 71.2525L13.32 71.1635L13.184 71.1063C13.0369 71.0446 12.908 70.9463 12.8095 70.8209C12.7441 70.7377 12.6935 70.6443 12.6595 70.545C12.9301 70.6422 13.2196 70.6784 13.5071 70.6499L13.5071 70.65L13.5094 70.6497C13.9064 70.5995 14.2758 70.42 14.5606 70.139L14.5611 70.1385C14.7212 69.9777 14.8401 69.7805 14.9075 69.5638C14.975 69.3472 14.9891 69.1175 14.9486 68.8943C14.9057 68.654 14.8075 68.4268 14.6619 68.2309C14.5172 68.0363 14.3296 67.8777 14.1137 67.7674L14.4965 72.522ZM12.3319 67.8639C12.2158 68.0661 12.1587 68.2979 12.1688 68.5327C12.1855 68.8356 12.3149 69.1213 12.5315 69.3336C12.7162 69.5207 12.96 69.6379 13.2214 69.6653L12.3319 67.8639ZM12.3319 67.8639C12.374 67.8446 12.4126 67.8182 12.446 67.7858L12.4083 67.7469M17.8219 73.2341C17.6957 73.3441 17.5606 73.4432 17.418 73.5303L17.5477 68.4481C17.3486 68.4506 17.1577 68.5281 17.0133 68.6652L16.9574 68.6012C16.9569 68.6016 16.9565 68.602 16.956 68.6023C16.8416 68.7028 16.7698 68.8433 16.7556 68.995L16.7554 68.995L16.7552 69.0007C16.7527 69.0947 16.7709 69.1881 16.8084 69.2743C16.8456 69.3596 16.9008 69.4359 16.9703 69.4978C17.0607 69.5887 17.1931 69.7087 17.3417 69.8434L17.3498 69.8508C17.5037 69.9902 17.6759 70.1465 17.8425 70.3071L17.8423 70.3074L17.8488 70.3126C18.0697 70.487 18.244 70.7134 18.3562 70.9715C18.4658 71.2459 18.5109 71.5418 18.488 71.8364C18.4561 72.1578 18.3571 72.4689 18.1975 72.7497C18.0919 72.9255 17.9658 73.088 17.8219 73.2341ZM17.9238 68.2299C17.8139 68.3112 17.6821 68.3576 17.5455 68.3632L14.0708 67.8409C13.9326 67.7484 13.7676 67.7046 13.6017 67.7165C13.4358 67.7284 13.2787 67.7953 13.1551 67.9065L13.1003 67.8416C13.0999 67.8419 13.0996 67.8422 13.0993 67.8425C13.0355 67.8966 12.9838 67.9635 12.9476 68.0388C12.9111 68.1146 12.8911 68.1972 12.8888 68.2813C12.8865 68.3653 12.902 68.4489 12.9343 68.5265C12.966 68.6029 13.0133 68.6717 13.073 68.7288C13.1493 68.8157 13.2492 68.8785 13.3607 68.9097C13.4735 68.9412 13.5931 68.9388 13.7045 68.9028L13.7046 68.903L13.7101 68.9008C13.7881 68.8695 13.8579 68.8207 13.9141 68.7582C13.9279 68.7429 13.9408 68.7268 13.9528 68.71C13.9687 68.7701 13.9774 68.8321 13.9785 68.8946C13.9786 68.9865 13.9602 69.0774 13.9243 69.162C13.8884 69.2467 13.8357 69.3232 13.7695 69.387C13.6978 69.4554 13.6125 69.5079 13.5192 69.5412C13.4263 69.5744 13.3275 69.5878 13.229 69.5806C12.9876 69.555 12.7625 69.4466 12.592 69.2739L12.591 69.2729C12.3896 69.0755 12.2694 68.81 12.2537 68.5286C12.2425 68.2664 12.3213 68.0082 12.4769 67.797L12.5201 67.7383L12.4688 67.6867L12.4472 67.6649L12.388 67.6053L12.3277 67.6637C12.3045 67.6862 12.2771 67.7038 12.247 67.7154C12.2169 67.727 12.1847 67.7324 12.1525 67.7313L12.1525 67.7312L12.1508 67.7312C12.0893 67.7303 12.0472 67.7192 11.9974 67.706C11.9931 67.7049 11.9888 67.7037 11.9844 67.7026C11.9275 67.6877 11.8634 67.6729 11.7716 67.6792C11.737 67.6783 11.7027 67.6812 11.6692 67.6876C11.6978 67.6365 11.7293 67.587 11.7634 67.5392C11.914 67.3384 12.1029 67.1694 12.3193 67.0421C12.5721 66.9039 12.8514 66.821 13.1386 66.799L13.1391 66.7989C13.5269 66.7667 13.9152 66.8544 14.2515 67.0502C14.4136 67.1459 14.5609 67.2649 14.6884 67.4034L14.6884 67.4034L14.6906 67.4057C14.7683 67.4838 14.9544 67.6537 15.1324 67.8158C15.1453 67.8276 15.1582 67.8394 15.171 67.851C15.3368 68.002 15.4882 68.1398 15.5382 68.1901L15.5386 68.1905C15.6123 68.2638 15.702 68.3191 15.8006 68.3521C15.8992 68.3851 16.004 68.3949 16.107 68.3808L16.1151 68.3797L16.1229 68.3771C16.2147 68.3458 16.2992 68.2961 16.3712 68.231C16.443 68.1659 16.5008 68.0869 16.5411 67.9988C16.5959 67.881 16.6237 67.7524 16.6224 67.6224L16.6225 67.6224L16.6222 67.6177C16.6137 67.4871 16.6326 67.3561 16.6776 67.2333C16.7291 67.1124 16.8213 67.0133 16.9382 66.9533C17.107 66.8703 17.2913 66.8235 17.4793 66.8159L17.4793 66.816L17.4818 66.8158C17.5436 66.8114 17.6075 66.8072 17.6704 66.803C17.7551 66.7974 17.8381 66.7918 17.9126 66.7863C17.988 66.7806 18.0584 66.7747 18.1156 66.7681C18.1164 66.7794 18.1173 66.7916 18.1184 66.8046C18.1247 66.8853 18.1348 66.9982 18.1499 67.1271L18.1499 67.1271L18.1503 67.1301C18.1876 67.3712 18.1874 67.6165 18.1497 67.8574C18.1228 68.0051 18.0423 68.1377 17.9238 68.2299Z" fill="#FCBC00" stroke="white" stroke-width="0.17"/>
<path d="M7.72015 64.2055C7.71351 63.889 7.7862 63.575 7.93275 63.2925C8.10402 62.9623 8.36859 62.6898 8.69351 62.5089C8.95643 62.3419 9.26719 62.2664 9.57744 62.2943C9.8302 62.3104 10.0751 62.3888 10.2903 62.5223C10.5059 62.656 10.685 62.841 10.8118 63.0608L10.8118 63.0608C11.0115 63.4075 11.052 63.7068 10.9879 63.9511C10.9243 64.1931 10.7616 64.368 10.5787 64.4743C10.5105 64.5217 10.4335 64.5551 10.3523 64.5726C10.2697 64.5903 10.1844 64.5912 10.1015 64.5752C10.0186 64.5591 9.93982 64.5265 9.86982 64.4793C9.79981 64.4321 9.74005 64.3713 9.69413 64.3004L9.69334 64.2992L9.69335 64.2992C9.65169 64.2325 9.62363 64.1582 9.6108 64.0806C9.59796 64.003 9.60059 63.9236 9.61855 63.847C9.63651 63.7704 9.66943 63.6981 9.71543 63.6343C9.74106 63.5987 9.77047 63.5662 9.80308 63.5372L9.79027 63.5239L9.8783 63.4681C9.91052 63.4477 9.94449 63.4305 9.97972 63.4167C9.8921 63.3724 9.79625 63.3451 9.69726 63.337C9.53704 63.3239 9.37676 63.3616 9.23922 63.4448L9.23766 63.4458C8.98143 63.5934 8.87339 63.8115 8.85122 64.0363C8.82868 64.2649 8.89548 64.501 8.99277 64.6699L8.9934 64.6709L8.99339 64.6709C9.07522 64.8179 9.19161 64.9427 9.33251 65.0346C9.47341 65.1265 9.63458 65.1827 9.80206 65.1983L9.80276 65.1984L9.80276 65.1984C10.0308 65.2215 10.261 65.1846 10.4703 65.0911L10.5403 65.0598L10.5786 65.1263L10.5914 65.1485L10.6351 65.2244L10.5579 65.2658C10.5032 65.2952 10.4593 65.3413 10.4326 65.3974L10.4309 65.4011L10.4308 65.401C10.4008 65.4571 10.3888 65.5185 10.3807 65.5856C10.3792 65.5977 10.3778 65.6106 10.3764 65.624C10.3708 65.6774 10.3642 65.739 10.347 65.7902C10.3469 65.7906 10.3468 65.7909 10.3467 65.7913L10.2662 65.764C10.2432 65.8379 10.2059 65.9058 10.1569 65.9642L7.72015 64.2055ZM7.72015 64.2055C7.63258 64.1432 7.5571 64.0648 7.49801 63.974C7.41109 63.8404 7.36304 63.6853 7.35922 63.526L7.35547 63.3698L7.22637 63.4578C7.04618 63.5806 6.83581 63.6518 6.61808 63.6635C6.42074 63.6741 6.22417 63.6356 6.04588 63.5519C6.08447 63.3615 6.16714 63.1824 6.2876 63.0293C6.42071 62.8601 6.5954 62.7282 6.79465 62.6467L6.93117 62.5908L6.81435 62.5007C6.68803 62.4033 6.58862 62.2753 6.52553 62.1288C6.48368 62.0316 6.45873 61.9284 6.45134 61.8236C6.6879 61.987 6.95847 62.0962 7.2437 62.1424L7.24369 62.1424L7.24597 62.1427C7.64253 62.196 8.04558 62.1172 8.39293 61.9186L8.39359 61.9183C8.58957 61.8038 8.75499 61.6437 8.87575 61.4516C8.99646 61.2595 9.06896 61.0411 9.08709 60.815C9.10722 60.5717 9.07056 60.327 8.98 60.1002C8.89007 59.875 8.74942 59.6737 8.56901 59.5117L7.72015 64.2055ZM6.82195 59.1482C6.65788 59.3138 6.54329 59.5233 6.49286 59.7528C6.43137 60.0499 6.48318 60.3592 6.63811 60.6199C6.76868 60.8481 6.97432 61.0239 7.21999 61.1174L6.82195 59.1482ZM6.82195 59.1482C6.86765 59.1403 6.91174 59.1247 6.95232 59.1019L6.92581 59.0546M10.7518 65.7463C10.6016 65.8203 10.4456 65.8815 10.2854 65.9291L11.7137 61.05C11.5206 61.0014 11.3162 61.0273 11.1415 61.1228L11.1039 61.0466C11.1033 61.0469 11.1028 61.0471 11.1022 61.0474C10.9659 61.1152 10.8605 61.2326 10.8079 61.3755L10.8077 61.3754L10.8061 61.3809C10.7796 61.4711 10.7732 61.5661 10.7873 61.659C10.8014 61.7511 10.8352 61.8389 10.8865 61.9166C10.9506 62.0276 11.0478 62.1775 11.1569 62.3459L11.1629 62.355C11.2758 62.5293 11.4022 62.7245 11.5221 62.9224L11.5218 62.9226L11.5268 62.9293C11.6956 63.1546 11.806 63.4181 11.8483 63.6963C11.8839 63.9896 11.8516 64.2872 11.7539 64.566C11.6407 64.8685 11.4653 65.1439 11.239 65.3744C11.0919 65.5172 10.9283 65.642 10.7518 65.7463ZM12.1332 60.9355C12.0061 60.9859 11.8668 60.997 11.7333 60.9673L8.50864 59.5718C8.39882 59.4469 8.25049 59.3623 8.08713 59.3312C7.92377 59.3002 7.75473 59.3245 7.60677 59.4004L7.57041 59.3236C7.57 59.3238 7.56959 59.324 7.56918 59.3242C7.49368 59.3601 7.42657 59.4115 7.37221 59.4751C7.31756 59.539 7.27703 59.6137 7.25328 59.6944C7.22953 59.775 7.22309 59.8598 7.23439 59.9431C7.24549 60.025 7.27348 60.1037 7.31657 60.1742C7.36806 60.2777 7.44855 60.3641 7.54827 60.4227C7.64923 60.4821 7.76544 60.5105 7.88241 60.5043L7.88242 60.5045L7.88834 60.5038C7.97175 60.4935 8.05168 60.4642 8.12203 60.4182C8.13933 60.4069 8.15593 60.3947 8.17177 60.3816C8.1718 60.4437 8.16432 60.5058 8.14935 60.5666C8.1259 60.6554 8.08477 60.7386 8.02841 60.8111C7.97198 60.8838 7.90144 60.9443 7.82104 60.9889C7.73421 61.0366 7.63835 61.0655 7.53965 61.0738C7.44131 61.0821 7.34232 61.0697 7.24905 61.0375C7.02228 60.9509 6.83247 60.7884 6.71189 60.5777L6.71119 60.5765C6.56718 60.3341 6.51896 60.0467 6.57599 59.7706C6.6324 59.5143 6.77471 59.285 6.97932 59.1207L7.03611 59.0751L6.99975 59.012L6.98443 58.9854L6.9425 58.9126L6.86923 58.9536C6.84108 58.9694 6.81004 58.9793 6.77796 58.9828C6.74589 58.9863 6.71343 58.9833 6.68255 58.974L6.68255 58.974L6.68097 58.9735C6.62178 58.9569 6.5839 58.9353 6.53914 58.9098C6.5353 58.9076 6.53141 58.9054 6.52745 58.9032C6.47626 58.8742 6.41812 58.8435 6.32778 58.826C6.29456 58.8163 6.26066 58.8103 6.22664 58.8079C6.2674 58.7658 6.31047 58.726 6.35566 58.6886C6.55272 58.5331 6.77867 58.4182 7.02043 58.3506C7.30021 58.2819 7.59142 58.2733 7.87475 58.3256L7.87527 58.3257C8.25835 58.394 8.61119 58.5783 8.886 58.8538C9.01822 58.9879 9.13002 59.1406 9.21781 59.3071L9.21775 59.3072L9.21935 59.3099C9.27436 59.4054 9.41068 59.6173 9.54119 59.8196C9.55068 59.8344 9.56014 59.849 9.56954 59.8636C9.69109 60.052 9.80206 60.224 9.83751 60.2855L9.83779 60.286C9.89027 60.3757 9.96275 60.4521 10.0496 60.5093C10.1364 60.5665 10.2353 60.6029 10.3384 60.6156L10.3465 60.6166L10.3547 60.616C10.4515 60.6094 10.5459 60.583 10.6322 60.5385C10.7183 60.4941 10.7944 60.4325 10.8559 60.3576C10.9391 60.2578 10.999 60.1407 11.031 60.0147L11.0311 60.0147L11.032 60.0101C11.0573 59.8817 11.1091 59.7599 11.1842 59.6527C11.2649 59.549 11.3794 59.4769 11.5078 59.4489C11.6922 59.412 11.8823 59.414 12.066 59.4548L12.066 59.4549L12.0685 59.4553C12.1294 59.467 12.1921 59.4792 12.254 59.4913C12.3373 59.5076 12.419 59.5235 12.4925 59.5372C12.5668 59.5511 12.6364 59.5634 12.6933 59.5717C12.6912 59.5828 12.689 59.5949 12.6866 59.6077C12.6721 59.6873 12.6529 59.799 12.6345 59.9275L12.6344 59.9275L12.6341 59.9306C12.6083 60.1731 12.5452 60.4101 12.4471 60.6334C12.3831 60.7692 12.2714 60.8768 12.1332 60.9355Z" fill="#FCBC00" stroke="white" stroke-width="0.17"/>
<path d="M3.32435 54.447C3.39983 54.1396 3.55132 53.855 3.76599 53.6201C4.01686 53.3455 4.34293 53.1507 4.70361 53.06C5.00079 52.9668 5.32048 52.9743 5.61296 53.0815C5.85293 53.1625 6.0692 53.3015 6.24255 53.4862C6.41616 53.6712 6.54134 53.8962 6.60692 54.1413L6.60693 54.1413C6.71015 54.5279 6.67174 54.8274 6.54659 55.0468C6.42259 55.2642 6.22012 55.391 6.01602 55.4463C5.93784 55.4745 5.85484 55.4869 5.77182 55.4827C5.68749 55.4784 5.60489 55.4572 5.52896 55.4203C5.45303 55.3834 5.38534 55.3315 5.32993 55.2678C5.27453 55.2041 5.23255 55.1298 5.20652 55.0495L5.20607 55.0481L5.20608 55.0481C5.18311 54.9729 5.17524 54.8939 5.18293 54.8156C5.19061 54.7373 5.2137 54.6613 5.25086 54.5919C5.28803 54.5226 5.33853 54.4613 5.39948 54.4116C5.43344 54.3839 5.47027 54.36 5.50927 54.3405L5.50033 54.3243L5.59981 54.2932C5.63621 54.2818 5.67348 54.274 5.71109 54.2698C5.63791 54.2043 5.55238 54.1532 5.45886 54.1197C5.3075 54.0656 5.14292 54.0605 4.98852 54.1053L4.98678 54.1058C4.70107 54.1821 4.54026 54.3649 4.46067 54.5763C4.37974 54.7912 4.38318 55.0365 4.43346 55.2248L4.43379 55.226L4.43378 55.226C4.47478 55.3892 4.55492 55.5399 4.66724 55.6651C4.77956 55.7903 4.92069 55.8863 5.07843 55.9447L5.07909 55.945L5.07909 55.945C5.29338 56.0264 5.52526 56.0502 5.75163 56.0141L5.82736 56.002L5.84715 56.0761L5.85375 56.1008L5.87635 56.1854L5.79107 56.2055C5.73059 56.2197 5.67625 56.2529 5.63599 56.3002L5.63335 56.3033L5.63328 56.3032C5.58975 56.3497 5.56236 56.4058 5.53712 56.4685C5.53257 56.4798 5.52792 56.4919 5.52308 56.5045C5.50378 56.5546 5.48153 56.6124 5.45166 56.6575C5.45146 56.6578 5.45125 56.6581 5.45105 56.6584L5.38036 56.6112C5.33907 56.6767 5.2854 56.7327 5.22295 56.7764L3.32435 54.447ZM3.32435 54.447C3.25589 54.3642 3.20327 54.2689 3.16969 54.1659C3.1203 54.0144 3.11402 53.8521 3.15155 53.6972L3.18835 53.5454L3.04088 53.597C2.83505 53.669 2.61344 53.6833 2.40008 53.6382C2.20671 53.5975 2.0268 53.5094 1.87627 53.3823C1.96282 53.2084 2.089 53.0568 2.24499 52.9401C2.41735 52.8111 2.62021 52.729 2.83377 52.7017L2.9801 52.6831L2.89058 52.5658C2.79377 52.439 2.73088 52.2897 2.70785 52.1318C2.69257 52.0271 2.69517 51.921 2.71514 51.8179C2.90137 52.0369 3.13447 52.2124 3.39802 52.3309L3.39801 52.3309L3.40013 52.3318C3.7694 52.4858 4.1791 52.5141 4.56601 52.4121L4.56675 52.4119C4.78566 52.3521 4.98688 52.2403 5.15324 52.0859C5.31955 51.9316 5.4461 51.7394 5.52213 51.5257C5.60454 51.2959 5.63246 51.05 5.60366 50.8076C5.57506 50.5668 5.49131 50.3359 5.35895 50.1327L3.32435 54.447ZM3.76547 49.3295C3.56413 49.447 3.39925 49.6197 3.29114 49.8284C3.15487 50.0994 3.12488 50.4115 3.20705 50.7035C3.27413 50.9577 3.42727 51.1807 3.64037 51.3346L3.76547 49.3295ZM3.76547 49.3295C3.81167 49.3337 3.8583 49.33 3.90338 49.3186L3.89002 49.266M5.85398 56.7198C5.68977 56.7525 5.52325 56.7711 5.35621 56.7757L7.99844 52.4324C7.82451 52.3354 7.62038 52.3077 7.42686 52.3547L7.41027 52.2713C7.40968 52.2714 7.40909 52.2715 7.4085 52.2717C7.25922 52.3018 7.1271 52.388 7.03924 52.5124L7.03909 52.5123L7.03612 52.5172C6.98715 52.5975 6.9564 52.6875 6.94603 52.781C6.93576 52.8735 6.94571 52.9671 6.97518 53.0554C7.00838 53.1792 7.06346 53.3492 7.1253 53.5401L7.12868 53.5505C7.19269 53.748 7.26427 53.9693 7.32887 54.1915L7.32847 54.1916L7.3316 54.1994C7.43634 54.4606 7.47482 54.7437 7.44362 55.0234C7.4021 55.3159 7.29392 55.595 7.12743 55.8391C6.93977 56.102 6.69906 56.3226 6.42084 56.4867C6.24178 56.5865 6.05149 56.6648 5.85398 56.7198ZM8.43326 52.4304C8.29746 52.4462 8.16004 52.4208 8.03881 52.3576L5.28511 50.1751C5.21134 50.0261 5.08996 49.906 4.9402 49.8337C4.79044 49.7615 4.62085 49.7412 4.4583 49.7762L4.44305 49.6926C4.44261 49.6927 4.44216 49.6928 4.44172 49.6929C4.35949 49.708 4.28136 49.7403 4.21241 49.7877C4.14308 49.8352 4.08459 49.8969 4.04078 49.9687C3.99696 50.0405 3.96881 50.1207 3.95816 50.2041C3.94769 50.2861 3.95437 50.3693 3.97775 50.4485C4.0007 50.5619 4.05609 50.6661 4.13723 50.7486C4.21938 50.8321 4.3243 50.8896 4.43889 50.9138L4.43884 50.914L4.44475 50.9149C4.52798 50.9265 4.61277 50.9189 4.69262 50.8927C4.71225 50.8863 4.73145 50.8787 4.75015 50.8702C4.73409 50.9302 4.71079 50.9883 4.68061 51.0431C4.63498 51.1228 4.57372 51.1925 4.50051 51.248C4.4272 51.3036 4.34342 51.3437 4.25419 51.3661C4.15799 51.3897 4.05791 51.3928 3.96042 51.3753C3.86329 51.3578 3.77087 51.3202 3.68912 51.265C3.49249 51.1226 3.35119 50.9166 3.28924 50.6818L3.28887 50.6805C3.21249 50.4091 3.24031 50.119 3.36684 49.867C3.48765 49.6341 3.68445 49.4494 3.92462 49.3436L3.99127 49.3143L3.97248 49.2439L3.96456 49.2143L3.9429 49.1331L3.8615 49.1538C3.83023 49.1618 3.79767 49.1633 3.76578 49.1584C3.7339 49.1535 3.70333 49.1422 3.67591 49.1251L3.67592 49.1251L3.6745 49.1243C3.62164 49.0929 3.59063 49.0623 3.55399 49.0261C3.55085 49.023 3.54766 49.0198 3.54442 49.0166C3.50248 48.9754 3.45426 48.9307 3.37153 48.8904C3.34195 48.8724 3.31075 48.8578 3.27852 48.8467C3.32877 48.8167 3.38068 48.7893 3.43401 48.7649C3.6646 48.6657 3.91258 48.6132 4.1636 48.6104C4.45164 48.6164 4.73513 48.6836 4.99528 48.8074L4.99576 48.8076C5.34813 48.9727 5.64124 49.2421 5.8354 49.5793C5.92843 49.743 5.99689 49.9194 6.03859 50.103L6.03853 50.103L6.03936 50.1061C6.06779 50.2126 6.14463 50.4526 6.21834 50.6818C6.2237 50.6984 6.22904 50.715 6.23435 50.7315C6.30301 50.945 6.36569 51.1398 6.38401 51.2084L6.38416 51.209C6.41163 51.3092 6.46186 51.4018 6.53093 51.4795C6.60001 51.5572 6.68608 51.6179 6.78244 51.6569L6.79002 51.66L6.79804 51.6616C6.89327 51.6802 6.9913 51.6791 7.08611 51.6584C7.18079 51.6378 7.27026 51.5981 7.34904 51.5416C7.45527 51.4668 7.54339 51.3691 7.60693 51.2557L7.60704 51.2558L7.60911 51.2516C7.66672 51.134 7.74828 51.0298 7.84855 50.9457C7.95335 50.8664 8.0826 50.8264 8.21385 50.8326C8.40158 50.8446 8.58472 50.8958 8.75153 50.9827L8.75152 50.9828L8.75381 50.9839C8.80962 51.0109 8.86708 51.039 8.92374 51.0666C8.99997 51.1039 9.07477 51.1405 9.14216 51.1727C9.21038 51.2054 9.27436 51.2353 9.32723 51.258C9.32233 51.2682 9.31706 51.2792 9.31146 51.291C9.27681 51.3642 9.22941 51.4671 9.17834 51.5864L9.17829 51.5864L9.17717 51.5893C9.0895 51.8168 8.96722 52.0295 8.81464 52.2197C8.71772 52.3344 8.58195 52.4094 8.43326 52.4304Z" fill="#FCBC00" stroke="white" stroke-width="0.17"/>
<path d="M1.59293 43.5455C1.7473 43.2692 1.96887 43.0351 2.23821 42.8655C2.55298 42.6673 2.91904 42.5661 3.29086 42.5744C3.60214 42.5634 3.90836 42.6555 4.16188 42.8365C4.37175 42.9783 4.54336 43.1697 4.66147 43.3938C4.77975 43.6182 4.8407 43.8684 4.83889 44.1221L4.83888 44.1221C4.83579 44.5222 4.71925 44.8009 4.54036 44.9791C4.36311 45.1558 4.13424 45.2243 3.92277 45.2235C3.83992 45.2299 3.75661 45.2198 3.67768 45.1937C3.5975 45.1672 3.5235 45.1249 3.4601 45.0691C3.3967 45.0133 3.3452 44.9454 3.30869 44.8692C3.27218 44.7931 3.25142 44.7104 3.24764 44.626L3.24758 44.6246L3.24759 44.6246C3.24541 44.546 3.2588 44.4677 3.28699 44.3942C3.31518 44.3208 3.35761 44.2536 3.41185 44.1967C3.46608 44.1397 3.53105 44.094 3.60301 44.0622C3.64311 44.0445 3.68494 44.0313 3.72774 44.0228L3.7234 44.0049L3.82757 44.0013C3.86569 43.9999 3.9037 44.0023 3.94108 44.0082C3.88791 43.9257 3.81902 43.8536 3.73773 43.7966C3.60617 43.7042 3.44883 43.6557 3.28809 43.6578L3.28628 43.6579C2.99057 43.6556 2.78701 43.7891 2.65417 43.9718C2.51907 44.1576 2.45729 44.395 2.45578 44.5899L2.45577 44.5911L2.45576 44.5911C2.45199 44.7593 2.48925 44.9259 2.5643 45.0764C2.63936 45.2269 2.74995 45.3569 2.88653 45.4551L2.8871 45.4555L2.8871 45.4555C3.07209 45.5909 3.28933 45.6754 3.51716 45.7007L3.59338 45.7092L3.59279 45.7858L3.59259 45.8114L3.59192 45.899L3.50438 45.8957C3.4423 45.8934 3.3811 45.9109 3.32972 45.9459L3.32636 45.9481L3.32631 45.9481C3.27202 45.9813 3.23071 46.0281 3.18972 46.0819C3.18234 46.0916 3.17464 46.102 3.16664 46.1129C3.13471 46.1561 3.09793 46.2059 3.05717 46.2414C3.05689 46.2416 3.05661 46.2419 3.05633 46.2421L3.00072 46.1779C2.94353 46.23 2.87692 46.2697 2.8051 46.2953L1.59293 43.5455ZM1.59293 43.5455C1.5489 43.4475 1.52346 43.3417 1.51843 43.2334C1.51102 43.0743 1.54804 42.9162 1.62533 42.7768L1.70111 42.6402L1.54524 42.6508C1.32768 42.6656 1.11024 42.6205 0.916478 42.5205C0.740871 42.4298 0.590795 42.2971 0.479385 42.1347C0.608998 41.99 0.770882 41.8774 0.952264 41.8062C1.15268 41.7276 1.37007 41.7022 1.5832 41.7327L1.72923 41.7535L1.67404 41.6167C1.61436 41.4688 1.59337 41.3081 1.61307 41.1498C1.62613 41.0448 1.6568 40.9432 1.70343 40.849C1.82483 41.1097 2.00299 41.3407 2.22565 41.5249L2.22563 41.5249L2.22744 41.5263C2.54257 41.7728 2.93008 41.9088 3.33017 41.9132L3.33094 41.9132C3.55787 41.9137 3.78156 41.8593 3.98292 41.7546C4.18422 41.65 4.35725 41.4983 4.48728 41.3124C4.62775 41.1127 4.71991 40.8831 4.75651 40.6417C4.79285 40.4019 4.7734 40.1571 4.6997 39.9261L1.59293 43.5455ZM3.37659 38.7287C3.15128 38.7886 2.94648 38.9113 2.78686 39.0838C2.58354 39.3089 2.47176 39.6019 2.47348 39.9052C2.47069 40.1681 2.55914 40.4238 2.72375 40.6287L3.37659 38.7287ZM3.37659 38.7287C3.42002 38.745 3.46596 38.7539 3.51246 38.7548L3.51353 38.7005M3.42852 46.4083C3.26153 46.3962 3.09602 46.37 2.93376 46.3301L6.63409 42.8439C6.49214 42.7042 6.3027 42.6233 6.10365 42.6172L6.10978 42.5325C6.10918 42.5324 6.10858 42.5324 6.10798 42.5323C5.95605 42.5218 5.8058 42.5698 5.68806 42.6664L5.68794 42.6663L5.68378 42.6702C5.61526 42.7346 5.56171 42.8133 5.5269 42.9006C5.49245 42.9871 5.47719 43.08 5.48217 43.1729C5.48131 43.3011 5.4893 43.4796 5.49826 43.6801L5.49875 43.691C5.50803 43.8984 5.51832 44.1307 5.52162 44.3621L5.5212 44.3621L5.52215 44.3705C5.55379 44.6501 5.51575 44.9333 5.41142 45.1947C5.29374 45.4657 5.11537 45.706 4.89006 45.8972C4.63935 46.1008 4.34872 46.2496 4.03693 46.334C3.83778 46.3827 3.63355 46.4077 3.42852 46.4083ZM7.05385 42.9574C6.91873 42.9365 6.79297 42.8756 6.69286 42.7825L4.61726 39.9474C4.58569 39.7841 4.50056 39.6361 4.37534 39.5266C4.25013 39.4172 4.092 39.3527 3.92598 39.3433L3.93349 39.2587C3.93304 39.2586 3.93259 39.2586 3.93214 39.2585C3.84882 39.2513 3.76493 39.2617 3.68588 39.2891C3.60641 39.3165 3.53365 39.3605 3.47236 39.418C3.41106 39.4756 3.36263 39.5455 3.33022 39.6231C3.29837 39.6993 3.28271 39.7813 3.28422 39.8639C3.27627 39.9793 3.302 40.0945 3.35834 40.1956C3.41538 40.2979 3.50128 40.3811 3.60531 40.435L3.60521 40.4351L3.61069 40.4375C3.68785 40.4708 3.77161 40.486 3.85555 40.4819C3.87619 40.4809 3.8967 40.4788 3.91699 40.4755C3.88558 40.5291 3.8477 40.5789 3.80405 40.6237C3.7389 40.6885 3.66134 40.7394 3.57603 40.7735C3.4906 40.8076 3.39915 40.8241 3.30719 40.822C3.20818 40.8192 3.11087 40.7956 3.02153 40.7528C2.93251 40.7102 2.85339 40.6495 2.78923 40.5745C2.63744 40.385 2.5559 40.1489 2.55849 39.9061L2.55848 39.9047C2.55688 39.6228 2.66071 39.3505 2.84958 39.1411C3.02789 38.9486 3.26665 38.8228 3.52628 38.7846L3.59833 38.774L3.5989 38.7011L3.59913 38.6704L3.59978 38.5865L3.51581 38.5848C3.48355 38.5842 3.45175 38.577 3.42231 38.5638C3.39288 38.5506 3.36641 38.5316 3.34449 38.5079L3.3445 38.5079L3.34336 38.5067C3.30072 38.4624 3.27896 38.4246 3.25324 38.38C3.25104 38.3762 3.2488 38.3723 3.24652 38.3684C3.21704 38.3175 3.18242 38.2616 3.11333 38.2008C3.08958 38.1756 3.06338 38.1533 3.03526 38.134C3.09169 38.1183 3.14898 38.1058 3.20689 38.0964C3.45555 38.0619 3.70857 38.0771 3.9513 38.1411C4.22742 38.2234 4.48292 38.3633 4.70087 38.5518L4.70127 38.5521C4.99718 38.8048 5.20828 39.1423 5.30596 39.519C5.35221 39.7015 5.37138 39.8898 5.36285 40.0779L5.36279 40.0779L5.36276 40.0811C5.36191 40.1912 5.3723 40.443 5.38253 40.6835C5.38327 40.701 5.38401 40.7185 5.38475 40.7358C5.3943 40.9598 5.40301 41.1643 5.40246 41.2353L5.40246 41.2358C5.40234 41.3398 5.42619 41.4424 5.47216 41.5356C5.51814 41.6289 5.585 41.7103 5.66755 41.7735L5.67404 41.7784L5.68136 41.7821C5.76824 41.8253 5.86304 41.8503 5.95993 41.8555C6.05669 41.8608 6.1535 41.8462 6.24443 41.8127C6.36672 41.7687 6.47761 41.6979 6.56896 41.6055L6.56905 41.6056L6.57217 41.6021C6.65891 41.504 6.7652 41.4252 6.88421 41.3707C7.00628 41.3221 7.14152 41.3179 7.26644 41.3586C7.44423 41.4201 7.60722 41.518 7.74496 41.6461L7.74494 41.6462L7.74686 41.6478C7.79349 41.6887 7.84144 41.731 7.88872 41.7727C7.95233 41.8289 8.01474 41.884 8.07115 41.933C8.12825 41.9826 8.18201 42.0284 8.22696 42.0643C8.21952 42.0728 8.21151 42.0821 8.20297 42.092C8.15015 42.1533 8.07714 42.24 7.99623 42.3414L7.99619 42.3414L7.99433 42.3439C7.8494 42.54 7.67506 42.7126 7.47746 42.8555C7.35357 42.9404 7.20277 42.9766 7.05385 42.9574Z" fill="#FCBC00" stroke="white" stroke-width="0.17"/>
<path d="M2.72419 32.8744C2.9446 32.6472 3.21905 32.4781 3.523 32.3837C3.87821 32.2734 4.258 32.27 4.6151 32.3739C4.9187 32.4435 5.19081 32.6115 5.38909 32.8518C5.5553 33.0429 5.67174 33.2721 5.72808 33.519C5.7845 33.7664 5.77887 34.0238 5.71171 34.2684L5.71169 34.2685C5.60555 34.6542 5.42109 34.8934 5.20228 35.0195C4.98547 35.1445 4.74668 35.1517 4.54257 35.0964C4.46087 35.0812 4.38298 35.0499 4.31344 35.0044C4.24281 34.9581 4.18224 34.8981 4.13535 34.8279C4.08847 34.7577 4.05624 34.6787 4.0406 34.5957C4.02496 34.5128 4.02623 34.4275 4.04433 34.345L4.04464 34.3436L4.04465 34.3436C4.06282 34.2671 4.09595 34.1949 4.14212 34.1312C4.1883 34.0675 4.24661 34.0136 4.3137 33.9725C4.38079 33.9314 4.45534 33.904 4.53306 33.8919C4.57638 33.8851 4.6202 33.8832 4.66374 33.886L4.66417 33.8675L4.76575 33.8909C4.80292 33.8995 4.83904 33.9115 4.87364 33.9269C4.84354 33.8334 4.79555 33.7461 4.73173 33.67C4.62843 33.5468 4.48893 33.4593 4.33306 33.42L4.3313 33.4196C4.04619 33.3411 3.81509 33.4176 3.63963 33.5599C3.46119 33.7045 3.34028 33.918 3.28857 34.1059L3.28824 34.1071L3.28823 34.1071C3.24123 34.2686 3.23427 34.4391 3.26797 34.6039C3.30167 34.7688 3.37501 34.9229 3.48164 35.053L3.48208 35.0535L3.48208 35.0535C3.62592 35.232 3.81402 35.3697 4.02763 35.4528L4.09909 35.4807L4.07875 35.5546L4.07196 35.5793L4.04872 35.6637L3.96499 35.638C3.90562 35.6197 3.84196 35.6209 3.78332 35.6414L3.77948 35.6427L3.77945 35.6426C3.71842 35.6607 3.66644 35.6953 3.61296 35.7367C3.60333 35.7442 3.59321 35.7523 3.58268 35.7607C3.54069 35.7942 3.49231 35.8329 3.44377 35.8566C3.44344 35.8568 3.44311 35.857 3.44277 35.8571L3.40561 35.7807C3.33691 35.8163 3.26231 35.8376 3.18632 35.8438L2.72419 32.8744ZM2.72419 32.8744C2.70692 32.7683 2.70964 32.6595 2.73268 32.5536C2.76657 32.3979 2.8431 32.2547 2.95371 32.14L3.06215 32.0275L2.90882 31.9976C2.69482 31.9558 2.49634 31.8562 2.33493 31.7095C2.18864 31.5767 2.07784 31.4098 2.01209 31.2241C2.17464 31.1177 2.36009 31.0506 2.55368 31.0287C2.7676 31.0044 2.98416 31.0359 3.18224 31.1203L3.31796 31.1781L3.29991 31.0317C3.28039 30.8734 3.30155 30.7127 3.3614 30.5648C3.40109 30.4668 3.45693 30.3765 3.52625 30.2976C3.57635 30.5807 3.68889 30.8499 3.85655 31.0852L3.85652 31.0852L3.85791 31.087C4.09881 31.4065 4.43816 31.6378 4.82358 31.7452L4.82432 31.7454C5.04346 31.8044 5.27361 31.8095 5.49515 31.7603C5.71662 31.7111 5.92292 31.6092 6.09648 31.4631C6.2837 31.3063 6.43195 31.1083 6.52956 30.8845C6.62649 30.6622 6.67083 30.4206 6.65918 30.1784L2.72419 32.8744ZM5.68956 28.6804C5.45643 28.6801 5.22693 28.7459 5.02822 28.8714C4.77374 29.0364 4.59018 29.2907 4.51363 29.5842C4.44316 29.8375 4.46269 30.1073 4.56889 30.3478L5.68956 28.6804ZM5.68956 28.6804C5.72732 28.7073 5.76943 28.7277 5.81412 28.7406L5.82914 28.6885M3.75953 36.1136C3.60131 36.0589 3.44815 35.9909 3.30168 35.9105L7.77578 33.4964C7.67465 33.3248 7.5125 33.1978 7.32174 33.1406L7.34952 33.0602C7.34896 33.06 7.34839 33.0599 7.34782 33.0597C7.20373 33.0103 7.0462 33.0179 6.90751 33.081L6.90743 33.0808L6.90241 33.0835C6.8196 33.128 6.74758 33.1902 6.69142 33.2657C6.63584 33.3403 6.59714 33.4262 6.57799 33.5172C6.5441 33.6409 6.50578 33.8154 6.46277 34.0114L6.46042 34.022C6.41589 34.2249 6.36593 34.452 6.30946 34.6764L6.30906 34.6763L6.30782 34.6846C6.26628 34.963 6.15652 35.2267 5.98832 35.4524C5.80473 35.6839 5.57041 35.8701 5.30343 35.9967C5.00869 36.1288 4.68952 36.1976 4.36653 36.1987C4.16154 36.1945 3.95778 36.1659 3.75953 36.1136ZM8.1521 33.7142C8.02691 33.6593 7.92111 33.568 7.84841 33.4522L6.57404 30.1777C6.58564 30.0119 6.54156 29.8469 6.4488 29.7089C6.35603 29.5709 6.21988 29.4677 6.0619 29.4159L6.09098 29.336C6.09056 29.3358 6.09014 29.3357 6.08971 29.3355C6.01107 29.3071 5.92733 29.2955 5.84391 29.3015C5.76005 29.3076 5.67841 29.3313 5.60435 29.3711C5.53029 29.4109 5.46547 29.4659 5.41416 29.5325C5.36372 29.598 5.32744 29.6732 5.3076 29.7534C5.27017 29.8628 5.26532 29.9808 5.2937 30.0929C5.32243 30.2065 5.38395 30.3091 5.47059 30.3879L5.47045 30.388L5.47513 30.3917C5.5411 30.4438 5.6181 30.4801 5.70026 30.4978C5.72045 30.5022 5.74083 30.5054 5.76129 30.5074C5.71711 30.5511 5.66766 30.5895 5.61393 30.6215C5.53428 30.6673 5.44622 30.6965 5.355 30.7074C5.26367 30.7184 5.17106 30.7107 5.08276 30.6849C4.98783 30.6567 4.89988 30.6088 4.82459 30.5445C4.74957 30.4804 4.68879 30.4013 4.64614 30.3123C4.54833 30.0901 4.53043 29.8409 4.59553 29.607L4.59588 29.6057C4.66703 29.3329 4.83758 29.0965 5.07403 28.943C5.29596 28.8029 5.55908 28.7429 5.81979 28.773L5.89214 28.7813L5.91146 28.7111L5.91961 28.6815L5.94189 28.6005L5.86119 28.5772C5.83019 28.5683 5.8013 28.5532 5.77626 28.5328C5.75123 28.5125 5.73056 28.4873 5.71549 28.4588L5.7155 28.4588L5.7147 28.4573C5.68493 28.4035 5.67365 28.3614 5.6603 28.3117C5.65916 28.3074 5.658 28.3031 5.65681 28.2987C5.64145 28.2419 5.62242 28.179 5.57134 28.1024C5.55488 28.072 5.53533 28.0436 5.51314 28.0177C5.57169 28.0172 5.63028 28.0198 5.68865 28.0257C5.93779 28.0565 6.17833 28.1364 6.39636 28.2608C6.64194 28.4115 6.8527 28.6126 7.01468 28.8509L7.01498 28.8513C7.23574 29.1718 7.35266 29.5523 7.34992 29.9414C7.34755 30.1297 7.31751 30.3165 7.26078 30.4961L7.26072 30.496L7.25987 30.4991C7.23064 30.6054 7.17575 30.8513 7.12361 31.0863C7.11982 31.1034 7.11604 31.1205 7.11229 31.1374C7.06375 31.3563 7.01944 31.5561 7.0006 31.6246L7.00046 31.6251C6.97353 31.7255 6.97012 31.8308 6.9905 31.9327C7.01088 32.0347 7.0545 32.1305 7.11796 32.2129L7.12295 32.2194L7.12908 32.2248C7.20188 32.2889 7.28702 32.3375 7.37929 32.3676C7.47142 32.3976 7.56872 32.4085 7.66521 32.3996C7.7947 32.3886 7.9201 32.3488 8.03219 32.283L8.03226 32.2832L8.03618 32.2806C8.14527 32.2082 8.26829 32.1594 8.39733 32.1375C8.52779 32.122 8.65955 32.1528 8.76974 32.2244C8.92567 32.3296 9.0579 32.4662 9.15795 32.6255L9.15792 32.6256L9.15934 32.6277C9.19387 32.6792 9.22928 32.7324 9.2642 32.7849C9.31118 32.8556 9.35727 32.9249 9.39914 32.9868C9.44153 33.0494 9.48166 33.1075 9.51582 33.1538C9.50643 33.1602 9.4963 33.1671 9.4855 33.1744C9.41865 33.2201 9.32577 33.2849 9.22144 33.3621L9.22141 33.3621L9.21896 33.364C9.02836 33.5161 8.81541 33.6379 8.58765 33.725C8.44607 33.7751 8.29102 33.7712 8.1521 33.7142Z" fill="#FCBC00" stroke="white" stroke-width="0.17"/>
<path d="M6.54163 22.9274C6.81328 22.7649 7.12212 22.6726 7.44013 22.66C7.81178 22.6453 8.17953 22.7402 8.49762 22.9329C8.77291 23.0787 8.99233 23.3113 9.12175 23.5946C9.23289 23.8222 9.2861 24.0738 9.27667 24.3269C9.26722 24.5804 9.19522 24.8276 9.06709 25.0466L9.06706 25.0466C8.86479 25.3918 8.62476 25.5751 8.38078 25.6404C8.13903 25.705 7.90651 25.6502 7.72363 25.544C7.64863 25.5083 7.58148 25.4579 7.52608 25.3959C7.46981 25.333 7.42682 25.2593 7.39969 25.1794C7.37256 25.0994 7.36184 25.0148 7.36818 24.9306C7.37453 24.8464 7.3978 24.7644 7.43661 24.6894L7.43728 24.6881L7.43729 24.6881C7.47463 24.6189 7.5253 24.5577 7.58637 24.5081C7.64744 24.4586 7.71771 24.4215 7.79314 24.3992C7.86857 24.3769 7.94767 24.3697 8.02589 24.3781C8.06948 24.3827 8.11232 24.3922 8.15365 24.4061L8.15884 24.3884L8.25091 24.4373C8.28461 24.4552 8.31638 24.4761 8.34584 24.4999C8.34093 24.4019 8.31715 24.3051 8.27518 24.2151C8.20724 24.0694 8.0951 23.9488 7.9547 23.8705L7.95312 23.8696C7.698 23.7201 7.45496 23.7343 7.24868 23.8263C7.03891 23.9199 6.86692 24.0948 6.76838 24.263L6.76775 24.2641L6.76774 24.2641C6.68058 24.4079 6.62977 24.5709 6.61971 24.7388C6.60965 24.9067 6.64064 25.0745 6.71 25.2278L6.71029 25.2284L6.71029 25.2284C6.80309 25.438 6.94919 25.6197 7.13403 25.7552L7.19587 25.8006L7.1571 25.8668L7.14416 25.8888L7.09987 25.9644L7.02566 25.9179C6.97304 25.8849 6.91123 25.8696 6.84928 25.8742L6.84523 25.8745L6.84523 25.8744C6.78159 25.8761 6.72242 25.8961 6.66006 25.9223C6.64883 25.927 6.63696 25.9322 6.62462 25.9376C6.57539 25.9591 6.51866 25.9839 6.46562 25.9943C6.46526 25.9944 6.46489 25.9945 6.46453 25.9946L6.4484 25.9111C6.37281 25.9278 6.29526 25.929 6.22026 25.9153L6.54163 22.9274ZM6.54163 22.9274C6.55237 22.8205 6.58313 22.7161 6.63276 22.6198C6.70576 22.4781 6.81671 22.3596 6.95322 22.2774L7.08706 22.1968L6.94669 22.1282C6.75077 22.0325 6.58481 21.8849 6.46679 21.7016C6.35982 21.5354 6.29595 21.3455 6.28045 21.1492C6.46498 21.0884 6.66146 21.0716 6.85416 21.1004C7.06708 21.1322 7.26811 21.2187 7.43764 21.3515L7.5538 21.4424L7.57422 21.2963C7.5963 21.1383 7.65829 20.9886 7.75434 20.8612C7.81804 20.7767 7.89532 20.7039 7.98269 20.6456C7.95788 20.9321 7.99699 21.2212 8.0981 21.4919L8.09807 21.4919L8.09894 21.494C8.24904 21.8649 8.51704 22.1761 8.86158 22.3795L8.86224 22.3799C9.05869 22.4935 9.27969 22.558 9.50642 22.5677C9.73307 22.5775 9.95871 22.5323 10.1641 22.4361C10.3855 22.3331 10.58 22.1801 10.7321 21.9891C10.8832 21.7995 10.9885 21.5776 11.0399 21.3406L6.54163 22.9274ZM10.4906 19.6428C10.2654 19.5823 10.0268 19.5864 9.80235 19.6563C9.51384 19.75 9.27078 19.9481 9.12093 20.2119C8.98738 20.4383 8.93647 20.704 8.97689 20.9637L10.4906 19.6428ZM10.4906 19.6428C10.5201 19.6786 10.5555 19.7092 10.5953 19.7332L10.6233 19.6867M6.7042 26.3242C6.56551 26.2304 6.43514 26.1252 6.31443 26.0096L11.2606 24.8345C11.2073 24.6426 11.0835 24.4779 10.914 24.3734L10.9616 24.3029C10.9611 24.3026 10.9606 24.3023 10.9601 24.3019C10.8337 24.217 10.6795 24.1836 10.5293 24.2087L10.5292 24.2085L10.5237 24.2098C10.4322 24.2314 10.3465 24.2729 10.2728 24.3312C10.1998 24.389 10.1402 24.4619 10.0981 24.5449C10.0334 24.6556 9.9513 24.8143 9.85908 24.9924L9.85405 25.0021C9.75859 25.1866 9.65161 25.393 9.53903 25.5952L9.53867 25.595L9.53533 25.6027C9.42323 25.8609 9.24899 26.0873 9.02817 26.2618C8.79096 26.4379 8.51646 26.5572 8.22583 26.6105C7.90695 26.6619 7.58084 26.6458 7.26854 26.5634C7.07163 26.5063 6.88219 26.426 6.7042 26.3242ZM11.5678 25.1422C11.4611 25.0567 11.3825 24.9412 11.3422 24.8106L10.9578 21.3179C11.0119 21.1607 11.012 20.9899 10.9581 20.8326C10.9041 20.6753 10.7993 20.5405 10.6601 20.4496L10.7088 20.3799C10.7085 20.3797 10.7081 20.3794 10.7077 20.3791C10.6391 20.3313 10.5612 20.2985 10.4791 20.2827C10.3965 20.2669 10.3115 20.2687 10.2297 20.288C10.1478 20.3073 10.071 20.3437 10.0042 20.3948C9.93856 20.445 9.88407 20.5082 9.84417 20.5806C9.77972 20.6766 9.74454 20.7893 9.74295 20.905C9.74134 21.0221 9.77424 21.1371 9.83755 21.2356L9.83737 21.2357L9.84094 21.2405C9.8912 21.3079 9.95621 21.3628 10.031 21.4012C10.0494 21.4106 10.0682 21.419 10.0875 21.4263C10.0335 21.4571 9.9758 21.4813 9.9156 21.4984C9.82683 21.522 9.73421 21.5275 9.64327 21.5144C9.55222 21.5014 9.46474 21.47 9.3861 21.4223C9.3017 21.3705 9.22911 21.3015 9.17303 21.2199C9.11714 21.1385 9.07888 21.0464 9.06069 20.9494C9.02365 20.7095 9.0708 20.4642 9.19415 20.2551L9.19484 20.2539C9.33412 20.0087 9.55998 19.8245 9.82809 19.7373C10.0787 19.6594 10.3484 19.6695 10.5924 19.7659L10.6602 19.7927L10.697 19.7298L10.7125 19.7033L10.755 19.6309L10.683 19.5875C10.6554 19.5709 10.6314 19.5488 10.6125 19.5227C10.5936 19.4966 10.5801 19.4669 10.5729 19.4354L10.5729 19.4354L10.5725 19.4338C10.5577 19.3742 10.5577 19.3306 10.5577 19.2791C10.5577 19.2746 10.5577 19.2702 10.5576 19.2656C10.5575 19.2068 10.5554 19.1411 10.5258 19.0539C10.5178 19.0203 10.5062 18.9878 10.4915 18.9571C10.5482 18.9717 10.6041 18.9894 10.659 19.0101C10.8917 19.1043 11.1034 19.2437 11.2818 19.4203C11.4801 19.6293 11.6317 19.8781 11.7265 20.1502L11.7267 20.1507C11.8571 20.5173 11.8717 20.9151 11.7684 21.2903C11.7175 21.4715 11.6401 21.6443 11.5389 21.803L11.5388 21.803L11.5372 21.8057C11.4815 21.9008 11.3649 22.1242 11.2538 22.3377C11.2457 22.3533 11.2376 22.3688 11.2296 22.3841C11.1261 22.583 11.0317 22.7646 10.9958 22.8259L10.9955 22.8263C10.9435 22.9164 10.913 23.0172 10.9063 23.1209C10.8997 23.2247 10.917 23.3286 10.957 23.4245L10.9602 23.4321L10.9647 23.4389C11.0184 23.5197 11.0881 23.5886 11.1695 23.6415C11.2507 23.6943 11.3419 23.73 11.4374 23.7463C11.5653 23.7692 11.6967 23.7632 11.822 23.7287L11.8221 23.7288L11.8265 23.7273C11.9506 23.6856 12.082 23.6703 12.2124 23.6825C12.3424 23.7013 12.4617 23.7651 12.5497 23.8627C12.6731 24.0047 12.7655 24.1708 12.8209 24.3506L12.8209 24.3506L12.8217 24.353C12.8418 24.4117 12.8622 24.4723 12.8824 24.5321C12.9095 24.6125 12.9361 24.6914 12.9605 24.7619C12.9853 24.8334 13.009 24.8999 13.03 24.9535C13.0193 24.9572 13.0078 24.9612 12.9954 24.9655C12.9191 24.9923 12.8126 25.031 12.6918 25.0785L12.6918 25.0785L12.6889 25.0797C12.4655 25.1774 12.2283 25.24 11.9857 25.2653C11.836 25.277 11.6872 25.2332 11.5678 25.1422Z" fill="#FCBC00" stroke="white" stroke-width="0.17"/>
<path d="M12.9417 14.133C13.2463 14.0467 13.5685 14.0377 13.8789 14.1082C14.2416 14.1906 14.572 14.3777 14.8292 14.6465C15.0571 14.8587 15.2086 15.1403 15.26 15.4476C15.3082 15.6962 15.2942 15.9529 15.2194 16.1949C15.1444 16.4373 15.0106 16.6573 14.83 16.8354L14.83 16.8355C14.545 17.1163 14.2656 17.2309 14.013 17.2306C13.7628 17.2302 13.5525 17.1169 13.4035 16.9668C13.3403 16.9128 13.2886 16.8468 13.2512 16.7725C13.2132 16.6971 13.1908 16.6148 13.1854 16.5306C13.1799 16.4463 13.1916 16.3618 13.2196 16.2822C13.2476 16.2025 13.2913 16.1293 13.3483 16.067L13.3493 16.0659L13.3493 16.0659C13.4033 16.0088 13.4681 15.9629 13.54 15.9309C13.6119 15.8988 13.6893 15.8813 13.768 15.8794C13.8466 15.8774 13.9249 15.891 13.9982 15.9194C14.0391 15.9352 14.078 15.9555 14.1143 15.9797L14.1239 15.964L14.2001 16.0351C14.228 16.0611 14.2533 16.0896 14.2755 16.1202C14.2963 16.0242 14.2984 15.9246 14.2813 15.8268C14.2535 15.6684 14.1766 15.5229 14.0613 15.4108L14.06 15.4095C13.8525 15.1989 13.6141 15.1494 13.391 15.1847C13.1641 15.2206 12.9526 15.3449 12.8138 15.4816L12.8129 15.4825L12.8129 15.4825C12.6913 15.5988 12.5999 15.7429 12.5466 15.9025C12.4933 16.062 12.4796 16.2321 12.5068 16.3981L12.5069 16.3988L12.5069 16.3988C12.5421 16.6254 12.6359 16.8387 12.7792 17.0176L12.8272 17.0775L12.7725 17.1313L12.7543 17.1493L12.6919 17.2108L12.6323 17.1465C12.5901 17.101 12.5344 17.0701 12.4734 17.0585L12.4694 17.0578L12.4694 17.0577C12.4075 17.0428 12.3452 17.0467 12.2781 17.0558C12.2661 17.0574 12.2533 17.0594 12.2399 17.0614C12.1868 17.0694 12.1256 17.0786 12.0717 17.0749C12.0713 17.0749 12.0709 17.0749 12.0705 17.0748L12.0766 16.99C11.9993 16.9865 11.9241 16.9675 11.8552 16.9349L12.9417 14.133ZM12.9417 14.133C12.9799 14.0326 13.0367 13.9397 13.1097 13.8596C13.217 13.7418 13.3549 13.6561 13.5081 13.6122L13.6583 13.5691L13.5405 13.4664C13.3762 13.3231 13.2543 13.1375 13.1879 12.9298C13.1278 12.7415 13.1154 12.5416 13.1515 12.3479C13.3455 12.3372 13.5396 12.372 13.7182 12.4499C13.9155 12.536 14.0872 12.6717 14.2164 12.8439L14.3049 12.9619L14.3626 12.8261C14.425 12.6793 14.5237 12.5508 14.6496 12.4527C14.733 12.3877 14.8266 12.3375 14.9261 12.3039C14.8277 12.5741 14.7904 12.8634 14.8177 13.1511L14.8177 13.1511L14.818 13.1534C14.8666 13.5505 15.0445 13.9206 15.3244 14.2066L15.3249 14.2071C15.4851 14.3679 15.6818 14.4875 15.8982 14.5558C16.1145 14.6241 16.3442 14.6391 16.5675 14.5996C16.8081 14.5576 17.0356 14.4604 17.2321 14.3155C17.4273 14.1716 17.5866 13.9847 17.6978 13.7692L12.9417 14.133ZM17.6084 11.987C17.4067 11.8701 17.1751 11.8121 16.9403 11.8212C16.6373 11.8367 16.3511 11.9649 16.1379 12.1807C15.9502 12.3646 15.832 12.608 15.8035 12.8693L17.6084 11.987ZM17.6084 11.987C17.6276 12.0292 17.6538 12.0679 17.6861 12.1015L17.7252 12.0639M12.2163 17.4554C12.1068 17.3288 12.0082 17.1933 11.9217 17.0504L17.0033 17.2004C17.0017 17.0013 16.9249 16.8101 16.7884 16.6651L16.8527 16.6095C16.8523 16.609 16.8519 16.6086 16.8515 16.6081C16.7515 16.4933 16.6113 16.421 16.4597 16.4061L16.4597 16.4059L16.454 16.4058C16.36 16.4029 16.2665 16.4207 16.1801 16.4578C16.0946 16.4947 16.0182 16.5496 15.956 16.6188C15.8648 16.7089 15.7442 16.8408 15.6089 16.9889L15.6015 16.997C15.4614 17.1503 15.3045 17.3219 15.1432 17.4878L15.1429 17.4875L15.1377 17.4941C14.9624 17.7143 14.7353 17.8877 14.4768 17.9988C14.2019 18.1073 13.9059 18.1512 13.6114 18.1271C13.2901 18.0939 12.9793 17.9937 12.6992 17.833C12.5239 17.7267 12.3618 17.5999 12.2163 17.4554ZM17.22 17.5774C17.1392 17.4672 17.0933 17.3352 17.0883 17.1985L17.6244 13.726C17.7175 13.5882 17.762 13.4233 17.7507 13.2574C17.7395 13.0915 17.6733 12.9341 17.5625 12.8101L17.6277 12.7555C17.6274 12.7551 17.6271 12.7548 17.6268 12.7544C17.573 12.6905 17.5063 12.6385 17.431 12.602C17.3554 12.5652 17.2729 12.5449 17.1888 12.5422C17.1048 12.5396 17.0211 12.5548 16.9434 12.5868C16.8669 12.6182 16.7979 12.6651 16.7406 12.7246C16.6534 12.8006 16.5901 12.9003 16.5585 13.0116C16.5266 13.1243 16.5285 13.2439 16.564 13.3555L16.5638 13.3556L16.566 13.3611C16.597 13.4392 16.6455 13.5092 16.7078 13.5656C16.7231 13.5795 16.7391 13.5925 16.7558 13.6045C16.6957 13.6202 16.6337 13.6287 16.5711 13.6295C16.4793 13.6292 16.3884 13.6104 16.304 13.5742C16.2194 13.538 16.1431 13.485 16.0796 13.4185C16.0115 13.3465 15.9593 13.261 15.9264 13.1676C15.8936 13.0746 15.8805 12.9757 15.8882 12.8773C15.9147 12.636 16.024 12.4113 16.1974 12.2414L16.1984 12.2404C16.3966 12.0399 16.6625 11.9207 16.9441 11.9061C17.2063 11.896 17.4641 11.9758 17.6748 12.1323L17.7332 12.1757L17.7851 12.1246L17.807 12.1031L17.8668 12.0441L17.8086 11.9836C17.7862 11.9604 17.7688 11.9328 17.7573 11.9027C17.7458 11.8725 17.7405 11.8404 17.7418 11.8081L17.7418 11.8081L17.7418 11.8065C17.743 11.745 17.7543 11.7029 17.7676 11.6531C17.7688 11.6489 17.77 11.6446 17.7711 11.6402C17.7863 11.5833 17.8013 11.5193 17.7954 11.4275C17.7964 11.3929 17.7937 11.3586 17.7874 11.325C17.8384 11.3539 17.8878 11.3855 17.9354 11.4198C18.1356 11.5712 18.3038 11.7608 18.4303 11.9776C18.5674 12.231 18.6492 12.5106 18.6701 12.798L18.6702 12.7985C18.7009 13.1864 18.6116 13.5744 18.4144 13.9098C18.3181 14.0716 18.1985 14.2183 18.0595 14.3453L18.0595 14.3453L18.0572 14.3475C17.9787 14.4249 17.8081 14.6103 17.6453 14.7877C17.6335 14.8006 17.6217 14.8134 17.6099 14.8262C17.4584 14.9914 17.32 15.1422 17.2694 15.192L17.269 15.1924C17.1954 15.2658 17.1397 15.3552 17.1063 15.4537C17.073 15.5522 17.0627 15.657 17.0764 15.76L17.0775 15.7681L17.0801 15.7759C17.111 15.8679 17.1604 15.9526 17.2252 16.0248C17.2899 16.0969 17.3687 16.155 17.4567 16.1956C17.5743 16.2509 17.7028 16.2792 17.8327 16.2785L17.8327 16.2786L17.8374 16.2783C17.9681 16.2703 18.099 16.2897 18.2217 16.3352C18.3424 16.3872 18.441 16.4798 18.5006 16.5969C18.5829 16.766 18.6289 16.9505 18.6358 17.1385L18.6358 17.1385L18.6359 17.1411C18.64 17.2029 18.644 17.2668 18.648 17.3297C18.6533 17.4144 18.6584 17.4975 18.6637 17.572C18.6691 17.6474 18.6747 17.7178 18.6811 17.775C18.6698 17.7758 18.6576 17.7767 18.6445 17.7777C18.5638 17.7837 18.451 17.7934 18.322 17.8079L18.322 17.8079L18.3189 17.8083C18.0777 17.8446 17.8324 17.8434 17.5917 17.8048C17.444 17.7773 17.3118 17.6963 17.22 17.5774Z" fill="#FCBC00" stroke="white" stroke-width="0.17"/>
<defs>
<radialGradient id="paint0_radial_2_4443" cx="0" cy="0" r="1" gradientUnits="userSpaceOnUse" gradientTransform="translate(42.5 42.5) rotate(-178.939) scale(80.6641)">
<stop stop-color="#8A0102"/>
<stop offset="0.369792" stop-color="#8A0102"/>
<stop offset="0.473958" stop-color="#CC0001"/>
<stop offset="0.567708" stop-color="#8A0102"/>
<stop offset="1" stop-color="#8A0102"/>
</radialGradient>
<radialGradient id="paint1_radial_2_4443" cx="0" cy="0" r="1" gradientUnits="userSpaceOnUse" gradientTransform="translate(42.4995 30.1042) rotate(90) scale(45.0359)">
<stop stop-color="#007FDB"/>
<stop offset="1" stop-color="#005A9B"/>
</radialGradient>
<radialGradient id="paint2_radial_2_4443" cx="0" cy="0" r="1" gradientUnits="userSpaceOnUse" gradientTransform="translate(47.4295 42.5) scale(65.0931 60.3446)">
<stop stop-color="#FCBC00"/>
<stop offset="0.438884" stop-color="#FCBC00"/>
<stop offset="0.516498" stop-color="#FFDA6D"/>
<stop offset="0.607857" stop-color="#FCBC00"/>
<stop offset="1" stop-color="#FCBC00"/>
</radialGradient>
</defs>
</svg>
