<svg width="105" height="64" viewBox="0 0 105 64" fill="none" xmlns="http://www.w3.org/2000/svg">
<rect x="0.175781" width="6.54053" height="6.56551" rx="3.27026" fill="#3CB371"/>
<rect x="21.0166" width="6.54053" height="6.56551" rx="3.27026" fill="#3CB371"/>
<rect x="0.175781" y="57.2141" width="6.54053" height="6.56551" rx="3.27026" fill="#3CB371"/>
<rect x="21.0166" y="57.2141" width="6.54053" height="6.56551" rx="3.27026" fill="#3CB371"/>
<rect x="28.2246" y="28.7175" width="6.54053" height="6.56551" rx="3.27026" fill="#3CB371"/>
<rect x="49.0654" y="28.7175" width="6.54053" height="6.56551" rx="3.27026" fill="#3CB371"/>
<rect x="9.52246" y="47.7886" width="6.54053" height="6.56551" rx="3.27026" fill="#3CB371"/>
<rect x="30.3633" y="47.7886" width="6.54053" height="6.56551" rx="3.27026" fill="#3CB371"/>
<rect x="18.874" y="19.1816" width="6.54053" height="6.56551" rx="3.27026" fill="#3CB371"/>
<rect x="39.7139" y="19.1816" width="6.54053" height="6.56551" rx="3.27026" fill="#3CB371"/>
<rect x="18.874" y="38.2529" width="6.54053" height="6.56551" rx="3.27026" fill="#3CB371"/>
<rect x="39.7139" y="38.2529" width="6.54053" height="6.56551" rx="3.27026" fill="#3CB371"/>
<rect x="9.52246" y="9.64569" width="6.54053" height="6.56551" rx="3.27026" fill="#3CB371"/>
<rect x="30.3633" y="9.64569" width="6.54053" height="6.56551" rx="3.27026" fill="#3CB371"/>
<path fill-rule="evenodd" clip-rule="evenodd" d="M70.2528 0H35.7744L70.3434 32L35.7744 64H70.2528L104.819 32.0022H104.824L104.822 32L104.824 31.9978H104.819L70.2528 0Z" fill="#3CB371"/>
</svg>
