<svg width="20" height="20" viewBox="0 0 20 20" fill="none" xmlns="http://www.w3.org/2000/svg">
<rect x="1.25" y="1.25" width="17.5" height="17.5" rx="3.74999" fill="url(#paint0_radial_2_1803)"/>
<rect x="1.25" y="1.25" width="17.5" height="17.5" rx="3.74999" fill="url(#paint1_radial_2_1803)"/>
<rect x="1.25" y="1.25" width="17.5" height="17.5" rx="3.74999" fill="url(#paint2_radial_2_1803)"/>
<path d="M14.375 6.56249C14.375 7.08026 13.9552 7.49999 13.4375 7.49999C12.9197 7.49999 12.5 7.08026 12.5 6.56249C12.5 6.04473 12.9197 5.625 13.4375 5.625C13.9552 5.625 14.375 6.04473 14.375 6.56249Z" fill="white"/>
<path fill-rule="evenodd" clip-rule="evenodd" d="M9.99998 13.125C11.7259 13.125 13.125 11.7259 13.125 9.99999C13.125 8.2741 11.7259 6.87499 9.99998 6.87499C8.27409 6.87499 6.87499 8.2741 6.87499 9.99999C6.87499 11.7259 8.27409 13.125 9.99998 13.125ZM9.99998 11.875C11.0355 11.875 11.875 11.0355 11.875 9.99999C11.875 8.96446 11.0355 8.12499 9.99998 8.12499C8.96445 8.12499 8.12498 8.96446 8.12498 9.99999C8.12498 11.0355 8.96445 11.875 9.99998 11.875Z" fill="white"/>
<path fill-rule="evenodd" clip-rule="evenodd" d="M3.74999 9.74999C3.74999 7.6498 3.74999 6.5997 4.15872 5.79753C4.51824 5.09193 5.09192 4.51825 5.79752 4.15872C6.59969 3.75 7.64979 3.75 9.74998 3.75H10.25C12.3502 3.75 13.4003 3.75 14.2024 4.15872C14.908 4.51825 15.4817 5.09193 15.8412 5.79753C16.25 6.5997 16.25 7.6498 16.25 9.74999V10.25C16.25 12.3502 16.25 13.4003 15.8412 14.2024C15.4817 14.9081 14.908 15.4817 14.2024 15.8413C13.4003 16.25 12.3502 16.25 10.25 16.25H9.74998C7.64979 16.25 6.59969 16.25 5.79752 15.8413C5.09192 15.4817 4.51824 14.9081 4.15872 14.2024C3.74999 13.4003 3.74999 12.3502 3.74999 10.25V9.74999ZM9.74998 5H10.25C11.3207 5 12.0486 5.00097 12.6112 5.04694C13.1592 5.09171 13.4395 5.17287 13.6349 5.27248C14.1054 5.51216 14.4878 5.89461 14.7275 6.36502C14.8271 6.56052 14.9083 6.84077 14.953 7.38879C14.999 7.9514 15 8.67927 15 9.74999V10.25C15 11.3207 14.999 12.0486 14.953 12.6112C14.9083 13.1592 14.8271 13.4395 14.7275 13.635C14.4878 14.1054 14.1054 14.4878 13.6349 14.7275C13.4395 14.8271 13.1592 14.9083 12.6112 14.953C12.0486 14.999 11.3207 15 10.25 15H9.74998C8.67926 15 7.95139 14.999 7.38878 14.953C6.84076 14.9083 6.56051 14.8271 6.36501 14.7275C5.89461 14.4878 5.51216 14.1054 5.27247 13.635C5.17286 13.4395 5.0917 13.1592 5.04693 12.6112C5.00096 12.0486 4.99999 11.3207 4.99999 10.25V9.74999C4.99999 8.67927 5.00096 7.9514 5.04693 7.38879C5.0917 6.84077 5.17286 6.56052 5.27247 6.36502C5.51216 5.89461 5.89461 5.51216 6.36501 5.27248C6.56051 5.17287 6.84076 5.09171 7.38878 5.04694C7.95139 5.00097 8.67926 5 9.74998 5Z" fill="white"/>
<defs>
<radialGradient id="paint0_radial_2_1803" cx="0" cy="0" r="1" gradientUnits="userSpaceOnUse" gradientTransform="translate(7.49998 14.375) rotate(-55.3758) scale(15.9497)">
<stop stop-color="#B13589"/>
<stop offset="0.79309" stop-color="#C62F94"/>
<stop offset="1" stop-color="#8A3AC8"/>
</radialGradient>
<radialGradient id="paint1_radial_2_1803" cx="0" cy="0" r="1" gradientUnits="userSpaceOnUse" gradientTransform="translate(6.87499 19.375) rotate(-65.1363) scale(14.1214)">
<stop stop-color="#E0E8B7"/>
<stop offset="0.444662" stop-color="#FB8A2E"/>
<stop offset="0.71474" stop-color="#E2425C"/>
<stop offset="1" stop-color="#E2425C" stop-opacity="0"/>
</radialGradient>
<radialGradient id="paint2_radial_2_1803" cx="0" cy="0" r="1" gradientUnits="userSpaceOnUse" gradientTransform="translate(0.3125 1.875) rotate(-8.1301) scale(24.3067 5.19896)">
<stop offset="0.156701" stop-color="#406ADC"/>
<stop offset="0.467799" stop-color="#6A45BE"/>
<stop offset="1" stop-color="#6A45BE" stop-opacity="0"/>
</radialGradient>
</defs>
</svg>
